
<svg width="63" height="38" viewBox="0 0 63 38" fill="white" alt="MP logo"
    xmlns="http://www.w3.org/2000/svg">
    <g transform="translate(-4, 0)" clip-path="url(#clip0_476_709MD)">
        <path
            d="M14.8563 22.403C15.1878 22.4944 15.5438 22.5581 15.8998 22.5744C15.9749 22.5777 16.0337 22.5793 16.0941 22.5793C17.0461 22.5793 17.8724 22.1711 18.8979 21.5114C19.2098 21.3105 19.5315 21.0917 19.8712 20.8598C19.8908 20.8467 19.9104 20.8337 19.93 20.8206V7.00391L27.6508 17.1888H29.2168L37.6626 7.02351V3.05176e-05L28.397 11.6645L19.7896 3.05176e-05H14.8677L14.8579 22.403H14.8563Z" />
        <path
            d="M15.7822 30.3622C15.467 30.354 15.16 30.3295 14.8579 30.2985V35.3754H14.8677V35.3967H19.93V29.6861C18.6775 30.1401 17.4152 30.3654 16.0957 30.3654C15.9912 30.3654 15.8851 30.3638 15.7822 30.3622Z" />
        <path
            d="M58.2153 4.64754C54.7518 1.60692 49.6748 6.10352e-05 43.5331 6.10352e-05H41.2502V24.4769C39.0147 24.4736 37.416 23.4383 35.5674 22.2413C33.6144 20.9758 31.4 19.542 28.3643 19.542C25.0967 19.542 22.8775 21.0525 20.9212 22.3867C20.5733 22.6235 20.2353 22.8537 19.9006 23.0693C18.6872 23.8498 17.5246 24.4312 16.0957 24.4312C16.0026 24.4312 15.9095 24.4295 15.8181 24.4246C12.4166 24.2711 9.94097 21.3399 9.89198 21.2811L6.99996 24.1732C7.95363 25.2166 11.2229 28.3863 15.8181 28.5104C15.9095 28.5104 16.0026 28.5136 16.0957 28.5136C17.5474 28.5136 18.7918 28.1887 19.9006 27.7086C21.1433 27.173 22.2161 26.443 23.2188 25.7604C24.9008 24.6141 26.3541 23.6245 28.3643 23.6245C30.1933 23.6245 31.6548 24.5716 33.3482 25.6673C35.4384 27.0211 37.8079 28.5561 41.2502 28.5594V35.3967H46.1492V4.19684C55.5127 5.04109 58.9159 10.443 58.9159 15.1232C58.9159 17.5726 58.0063 19.9846 56.419 21.7367C55.2237 23.0562 53.0877 24.6304 49.696 24.6304V28.7129C53.5107 28.7129 56.9743 27.2089 59.4466 24.4769C61.705 21.9833 63 18.5737 63 15.1232C63 11.075 61.3017 7.3534 58.2186 4.64754H58.2153Z" />
    </g>
    <defs>
        <clipPath id="clip0_476_709MD">
            <rect width="56" height="35.3684" fill="white" transform="translate(7)" />
        </clipPath>
        <clipPath id="clip1_476_709MD">
            <rect width="41" height="15" fill="white" transform="translate(0 23)" />
        </clipPath>
    </defs>
</svg>