<svg width="56" height="39" viewBox="0 0 56 39" fill="none" xmlns="http://www.w3.org/2000/svg">
<g clip-path="url(#clip0_190_4373)">
<path fill-rule="evenodd" clip-rule="evenodd" d="M12.9297 35.3965H7.86816V35.375H7.8584V30.2988C8.16034 30.3298 8.46723 30.3541 8.78223 30.3623C8.88509 30.3639 8.99121 30.3652 9.0957 30.3652C10.415 30.3652 11.6773 30.1404 12.9297 29.6865V35.3965ZM36.5332 0C42.6747 7.62939e-06 47.7513 1.60703 51.2148 4.64746H51.2188C54.3018 7.35329 56 11.0749 56 15.123C56 18.5735 54.7047 21.983 52.4463 24.4766C49.974 27.2085 46.5108 28.7128 42.6963 28.7129V24.6309C46.0878 24.6308 48.2236 23.0557 49.4189 21.7363C51.0061 19.9841 51.916 17.5724 51.916 15.123C51.916 10.443 48.5127 5.0416 39.1494 4.19727V35.3965H34.25V28.5596C30.8079 28.5562 28.4388 27.0207 26.3486 25.667C24.6552 24.5713 23.1932 23.624 21.3643 23.624C19.3541 23.624 17.9007 24.6144 16.2188 25.7607C15.2161 26.4433 14.143 27.1734 12.9004 27.709C11.7917 28.189 10.5473 28.5137 9.0957 28.5137C9.00272 28.5137 8.90972 28.5107 8.81836 28.5107C4.22314 28.3866 0.953667 25.2163 0 24.1729L2.8916 21.2812C2.94059 21.34 5.41685 24.2713 8.81836 24.4248C8.90971 24.4297 9.00272 24.4316 9.0957 24.4316C10.5245 24.4316 11.6871 23.8499 12.9004 23.0693C13.2351 22.8538 13.5732 22.6235 13.9209 22.3867C15.8772 21.0526 18.0967 19.542 21.3643 19.542C24.3999 19.542 26.6143 20.9757 28.5674 22.2412C30.4159 23.4381 32.0146 24.4732 34.25 24.4766V0H36.5332ZM21.3975 11.6641L30.6621 0V7.02344L22.2168 17.1885H20.6504L12.9297 7.00391V20.8203L12.8711 20.8594C12.5314 21.0913 12.2094 21.3109 11.8975 21.5117C10.8722 22.1713 10.0456 22.5791 9.09375 22.5791C9.03345 22.5791 8.97439 22.5775 8.89941 22.5742C8.54362 22.5579 8.18776 22.4947 7.85645 22.4033H7.8584L7.86816 0H12.79L21.3975 11.6641Z" fill="white"/>
</g>
<defs>
<clipPath id="clip0_190_4373">
<rect width="56" height="35.3684" fill="white"/>
</clipPath>
</defs>
</svg>
