<svg width="56" height="39" viewBox="0 0 56 39" fill="none" xmlns="http://www.w3.org/2000/svg">
<g clip-path="url(#clip0_477_739)">
<path id="mp-logo_wave" d="M7.8563 22.403C8.1878 22.4944 8.54379 22.5581 8.89978 22.5744C8.9749 22.5777 9.03368 22.5793 9.0941 22.5793C10.0461 22.5793 10.8724 22.1711 11.8979 21.5114C12.2098 21.3105 12.5315 21.0917 12.8712 20.8598C12.8908 20.8467 12.9104 20.8337 12.93 20.8206V7.00391L20.6508 17.1888H22.2168L30.6626 7.02351V3.05176e-05L21.397 11.6645L12.7896 3.05176e-05H7.86773L7.85793 22.403H7.8563Z" fill="white"/>
<path id="mp-logo_lower-m" d="M8.7822 30.3622C8.46704 30.354 8.16004 30.3295 7.85793 30.2985V35.3754H7.86773V35.3967H12.93V29.6861C11.6775 30.1401 10.4152 30.3654 9.09574 30.3654C8.99123 30.3654 8.88508 30.3638 8.7822 30.3622Z" fill="white"/>
<path id="mp-logo_p" d="M51.2153 4.64754C47.7518 1.60692 42.6748 6.10352e-05 36.5331 6.10352e-05H34.2502V24.4769C32.0147 24.4736 30.416 23.4383 28.5674 22.2413C26.6144 20.9758 24.4 19.542 21.3643 19.542C18.0967 19.542 15.8775 21.0525 13.9212 22.3867C13.5733 22.6235 13.2353 22.8537 12.9006 23.0693C11.6872 23.8498 10.5246 24.4312 9.0957 24.4312C9.00262 24.4312 8.90954 24.4295 8.81809 24.4246C5.41658 24.2711 2.94097 21.3399 2.89198 21.2811L-3.8147e-05 24.1732C0.953626 25.2166 4.22287 28.3863 8.81809 28.5104C8.90954 28.5104 9.00262 28.5136 9.0957 28.5136C10.5474 28.5136 11.7918 28.1887 12.9006 27.7086C14.1433 27.173 15.2161 26.443 16.2188 25.7604C17.9008 24.6141 19.3541 23.6245 21.3643 23.6245C23.1933 23.6245 24.6548 24.5716 26.3482 25.6673C28.4384 27.0211 30.8079 28.5561 34.2502 28.5594V35.3967H39.1492V4.19684C48.5127 5.04109 51.9159 10.443 51.9159 15.1232C51.9159 17.5726 51.0063 19.9846 49.419 21.7367C48.2237 23.0562 46.0877 24.6304 42.696 24.6304V28.7129C46.5107 28.7129 49.9743 27.2089 52.4466 24.4769C54.705 21.9833 56 18.5737 56 15.1232C56 11.075 54.3017 7.3534 51.2186 4.64754H51.2153Z" fill="white"/>
</g>
<defs>
<clipPath id="clip0_477_739">
<rect width="56" height="35.3684" fill="white"/>
</clipPath>
</defs>
</svg>
