<svg width="600" height="300" viewBox="0 0 600 300" fill="none" xmlns="http://www.w3.org/2000/svg">
<path d="M203.841 83.3534L213.297 83.7909L213.349 135.648H169.243V83.7909L178.706 83.3534V72.1213H121.318V83.3534L131.355 83.7909V171.838H158.442C162.328 156.917 176.041 146.227 191.577 146.227C194.836 146.227 198.016 146.703 201.046 147.585C201.32 147.663 201.594 147.748 201.862 147.833C209.751 150.347 216.529 155.669 220.832 162.716C221.074 163.114 221.309 163.519 221.538 163.93C221.995 164.747 222.419 165.589 222.805 166.451C223.001 166.882 223.183 167.313 223.36 167.757C223.889 169.076 224.339 170.441 224.705 171.838H251.244V83.7909L261.307 83.3534V72.1213H203.841V83.3534ZM150.299 163.231C146.25 163.231 142.966 159.947 142.966 155.898C142.966 151.849 146.25 148.565 150.299 148.565C154.348 148.565 157.633 151.849 157.633 155.898C157.633 159.947 154.348 163.231 150.299 163.231ZM157.633 135.648H142.966V83.7909H157.633V135.648ZM225.084 83.7909H239.751V135.648H225.084V83.7909ZM232.417 148.558C236.466 148.558 239.751 151.843 239.751 155.891C239.751 159.94 236.466 163.225 232.417 163.225C228.368 163.225 225.084 159.94 225.084 155.891C225.084 151.843 228.368 148.558 232.417 148.558Z" fill="white"/>
<path d="M251.257 175.267H221.975L221.681 173.915C218.638 159.856 205.976 149.655 191.577 149.655C177.178 149.655 164.516 159.856 161.472 173.915L161.179 175.267H131.355V217.041L121.318 217.348V228.567H179.62V217.348L171.849 217.048V182.796C171.849 170.18 180.103 161.024 191.472 161.024C202.842 161.024 211.089 170.18 211.089 182.796V217.041L203.325 217.348V228.567H261.32V217.348L251.257 217.041V175.267ZM157.633 181.288V217.041H142.966V181.288H157.633ZM239.751 181.288V217.041H225.084V181.288H239.751Z" fill="white"/>
<path d="M202.763 96.7994C202.763 90.4781 197.637 85.3518 191.316 85.3518C184.994 85.3518 179.868 90.4781 179.868 96.7994V129.039H202.763V96.7994Z" fill="white"/>
<path d="M310.447 121.934L307.92 121.862V118.976L308.736 116.658H317.108L318.891 121.823L315.789 121.934V123.789H326.015V121.934L324.272 121.823L316.396 99.8096H312.439L306.098 117.618C305.549 119.159 304.994 120.563 304.426 121.817L302.859 121.928V123.782H310.447V121.928V121.934ZM313.046 104.44C313.379 105.674 313.627 106.529 313.797 107.006L316.507 114.842H309.383L313.053 104.44H313.046Z" fill="white"/>
<path d="M342.961 118.408L341.322 118.192L339.435 121.934H333.806L342.57 107.901L342.713 107.222H328.497L328.288 112.42L329.96 112.563L331.703 109.037H336.621L327.785 123.07L327.648 123.782H342.426L342.961 118.408Z" fill="white"/>
<path d="M359.359 110.924C358.614 112.328 358.236 114 358.236 115.946C358.236 118.702 359.026 120.791 360.606 122.215C362.186 123.639 364.211 124.35 366.679 124.35C369.389 124.35 371.688 123.436 373.588 121.608L372.445 120.08C370.904 121.412 369.37 122.071 367.848 122.071C366.327 122.071 365.197 121.562 364.537 120.543C363.871 119.518 363.519 117.833 363.466 115.482H373.693C373.81 114.888 373.869 114.163 373.869 113.308C373.869 111.264 373.196 109.644 371.858 108.443C370.512 107.241 368.73 106.647 366.496 106.647C365.001 106.647 363.623 107.006 362.363 107.731C361.102 108.456 360.103 109.52 359.352 110.918L359.359 110.924ZM364.936 108.606C365.314 108.488 365.824 108.43 366.47 108.43C368.416 108.501 369.389 109.905 369.389 112.635C369.389 113.131 369.376 113.504 369.357 113.739H363.512C363.61 111.46 364.08 109.749 364.936 108.612V108.606Z" fill="white"/>
<path d="M395.549 111.832C395.563 111.27 395.484 110.696 395.321 110.101C395.034 109.148 394.433 108.371 393.506 107.77C392.578 107.163 391.429 106.862 390.051 106.862C387.818 106.862 385.8 107.672 383.997 109.285V108.678C383.997 107.894 384.037 107.182 384.108 106.542L384.037 106.471L376.84 107.47L377.056 109.181L379.302 108.972V122.006L376.919 122.078V123.789H386.394V122.078L384.291 122.006V111.316C385.643 109.912 386.89 109.213 388.033 109.213C388.934 109.213 389.581 109.488 389.973 110.03C390.364 110.578 390.56 111.408 390.56 112.524V122L388.458 122.071V123.782H397.933V122.071L395.549 122V112.844C395.549 112.727 395.549 112.387 395.569 111.832H395.549Z" fill="white"/>
<path d="M410.412 100.561L412.796 100.313V107.365C411.751 106.96 410.693 106.758 409.622 106.758C407.84 106.758 406.246 107.176 404.829 108.005C403.419 108.835 402.321 109.951 401.551 111.355C400.78 112.759 400.395 114.287 400.395 115.953C400.395 118.421 401.042 120.432 402.335 121.993C403.628 123.547 405.43 124.324 407.729 124.324C409.701 124.324 411.457 123.528 412.998 121.941C413.188 122.894 413.39 123.639 413.606 124.187L413.893 124.364L420.058 123.724V122.084L417.668 122.013V100.273C417.668 99.5355 417.7 98.7323 417.779 97.8507L417.707 97.818L410.19 98.8171L410.406 100.561H410.412ZM412.691 119.616C411.594 121.183 410.399 121.967 409.093 121.967C408.003 121.967 407.167 121.477 406.579 120.504C405.998 119.531 405.704 117.879 405.704 115.554C405.704 114.059 405.854 112.759 406.148 111.656C406.442 110.552 406.984 109.618 407.768 108.861C408.362 108.691 409.041 108.613 409.799 108.613C410.726 108.613 411.686 108.874 412.685 109.396V119.623L412.691 119.616Z" fill="white"/>
<path d="M424.015 107.47L423.871 112.276L425.51 112.42L427.293 108.645C427.887 108.528 428.482 108.469 429.076 108.469C431.381 108.469 432.517 109.657 432.498 112.034L432.459 114.562C431.819 114.464 431.113 114.418 430.356 114.418C427.979 114.418 426.046 114.836 424.55 115.665C423.055 116.495 422.304 117.853 422.304 119.727C422.304 121.131 422.8 122.248 423.799 123.09C424.799 123.933 426.183 124.357 427.966 124.357C430.101 124.357 431.727 123.502 432.844 121.791C432.916 122.196 433.046 122.535 433.236 122.822C433.543 123.319 433.934 123.704 434.411 123.959C434.888 124.22 435.587 124.351 436.514 124.351C437.134 124.351 437.794 124.253 438.492 124.05C439.191 123.848 439.779 123.606 440.256 123.319L439.616 121.68C438.878 121.987 438.277 122.169 437.8 122.215C437.422 121.738 437.252 120.837 437.304 119.505L437.448 114.235C437.474 113.425 437.448 112.701 437.395 112.061C437.337 111.421 437.199 110.839 436.984 110.317C436.031 107.894 433.503 106.68 429.396 106.68C427.613 106.68 425.824 106.941 424.015 107.463V107.47ZM432.53 117.944C432.504 119.152 432.191 120.178 431.583 121.007C430.976 121.836 430.251 122.267 429.396 122.287C428.684 122.287 428.135 122.013 427.757 121.471C427.378 120.922 427.189 120.197 427.189 119.296C427.189 118.153 427.437 117.193 427.94 116.41C428.625 116.24 429.435 116.162 430.362 116.162C431.12 116.162 431.838 116.207 432.498 116.305L432.53 117.409V117.944Z" fill="white"/>
<path d="M321.842 135.811C320.086 134.786 318.081 134.276 315.822 134.276C313.562 134.276 311.414 134.877 309.644 136.072C307.874 137.274 306.522 138.88 305.582 140.898C304.642 142.916 304.185 145.104 304.211 147.454C304.237 149.714 304.727 151.738 305.687 153.528C306.647 155.323 308.005 156.727 309.768 157.753C311.525 158.771 313.556 159.281 315.861 159.281C318.166 159.281 320.236 158.686 322.006 157.498C323.775 156.309 325.134 154.716 326.087 152.705C327.034 150.7 327.498 148.473 327.478 146.024C327.452 143.791 326.949 141.786 325.963 140.003C324.977 138.221 323.606 136.823 321.849 135.804L321.842 135.811ZM321.098 152.698C320.621 154.383 320.007 155.689 319.243 156.616C318.747 156.832 318.244 156.982 317.748 157.08C317.252 157.178 316.605 157.224 315.822 157.224C313.706 157.224 312.191 156.329 311.263 154.533C310.336 152.737 309.872 150.145 309.872 146.749C309.872 144.516 310.101 142.589 310.565 140.963C311.028 139.337 311.642 137.999 312.4 136.954C313.464 136.529 314.607 136.314 315.822 136.314C317.911 136.314 319.433 137.202 320.38 138.985C321.333 140.767 321.803 143.353 321.803 146.749C321.803 149.028 321.568 151.013 321.091 152.698H321.098Z" fill="white"/>
<path d="M340.186 148.813L337.763 147.67C336.908 147.265 336.288 146.86 335.896 146.462C335.504 146.057 335.308 145.606 335.308 145.11C335.308 144.614 335.51 144.15 335.915 143.719C336.555 143.504 337.293 143.399 338.123 143.399C338.763 143.399 339.442 143.497 340.153 143.686L341.825 147.108L343.464 147.004L343.321 142.583C342.7 142.296 341.917 142.06 340.97 141.871C340.016 141.682 339.096 141.59 338.188 141.59C336.052 141.59 334.361 142.08 333.114 143.066C331.867 144.052 331.246 145.339 331.246 146.932C331.246 148.924 332.454 150.484 334.877 151.595L337.267 152.698C338.266 153.149 338.985 153.593 339.422 154.037C339.86 154.474 340.082 155.003 340.082 155.624C340.082 156.192 339.892 156.701 339.513 157.158C338.874 157.348 338.149 157.439 337.339 157.439C336.314 157.439 335.393 157.282 334.557 156.976L332.813 153.129L331.174 153.273L331.39 157.831C332.147 158.282 333.062 158.641 334.133 158.902C335.204 159.163 336.222 159.294 337.195 159.294C339.429 159.294 341.192 158.817 342.485 157.87C343.778 156.917 344.424 155.578 344.424 153.848C344.424 151.804 343.014 150.132 340.186 148.826V148.813Z" fill="white"/>
<path d="M365.739 154.683C366.464 153.26 366.823 151.647 366.823 149.838C366.823 147.415 366.202 145.463 364.955 143.98C363.708 142.498 362.004 141.753 359.842 141.753C357.681 141.753 355.878 142.596 354.141 144.281V143.784C354.141 143.001 354.18 142.217 354.246 141.433L354.174 141.401L347.049 142.361L347.265 144.104L349.511 143.856V165.798L347.16 165.902V167.613H357.524V165.902L354.494 165.798V158.242C355.637 158.908 356.884 159.242 358.236 159.242C359.894 159.242 361.383 158.837 362.689 158.033C363.995 157.224 365.007 156.114 365.732 154.683H365.739ZM358.882 157.465C358.738 157.491 358.536 157.498 358.275 157.498C356.923 157.498 355.663 156.989 354.5 155.963V146.272C355.121 145.606 355.721 145.084 356.296 144.705C356.877 144.326 357.478 144.137 358.098 144.137C359.169 144.137 360.005 144.633 360.613 145.632C361.22 146.632 361.52 148.199 361.52 150.334C361.52 153.874 360.639 156.251 358.882 157.459V157.465Z" fill="white"/>
<path d="M371.218 145.855C370.473 147.259 370.095 148.93 370.095 150.876C370.095 153.632 370.885 155.722 372.465 157.145C374.045 158.569 376.07 159.281 378.538 159.281C381.248 159.281 383.547 158.367 385.447 156.538L384.304 155.01C382.763 156.342 381.229 157.002 379.707 157.002C378.186 157.002 377.056 156.492 376.396 155.474C375.73 154.448 375.378 152.764 375.325 150.413H385.552C385.669 149.819 385.728 149.094 385.728 148.238C385.728 146.194 385.055 144.575 383.717 143.373C382.371 142.172 380.589 141.577 378.355 141.577C376.86 141.577 375.482 141.936 374.222 142.661C372.961 143.386 371.962 144.451 371.211 145.848L371.218 145.855ZM376.795 143.536C377.173 143.419 377.683 143.36 378.329 143.36C380.275 143.432 381.248 144.836 381.248 147.566C381.248 148.062 381.235 148.434 381.209 148.669H375.365C375.462 146.39 375.933 144.679 376.788 143.543L376.795 143.536Z" fill="white"/>
<path d="M408.597 158.641V157.002L406.207 156.93V135.197C406.207 134.459 406.246 133.656 406.318 132.774L406.246 132.735L398.73 133.734L398.945 135.478L401.329 135.23V142.283C400.284 141.878 399.226 141.675 398.155 141.675C396.372 141.675 394.779 142.093 393.362 142.923C391.951 143.752 390.854 144.869 390.084 146.273C389.313 147.677 388.928 149.205 388.928 150.87C388.928 153.338 389.574 155.35 390.867 156.91C392.16 158.465 393.963 159.242 396.261 159.242C398.234 159.242 399.99 158.445 401.531 156.858C401.721 157.811 401.923 158.556 402.139 159.104L402.426 159.281L408.591 158.641H408.597ZM401.224 154.546C400.127 156.114 398.932 156.897 397.626 156.897C396.536 156.897 395.7 156.407 395.112 155.434C394.531 154.461 394.237 152.809 394.237 150.485C394.237 148.989 394.387 147.69 394.681 146.586C394.975 145.482 395.517 144.549 396.301 143.791C396.895 143.621 397.574 143.543 398.332 143.543C399.259 143.543 400.219 143.804 401.218 144.327V154.553L401.224 154.546Z" fill="white"/>
<path d="M418.882 149.342C416.505 149.342 414.572 149.76 413.077 150.589C411.581 151.418 410.83 152.777 410.83 154.651C410.83 156.048 411.327 157.171 412.326 158.014C413.325 158.856 414.709 159.281 416.492 159.281C418.628 159.281 420.254 158.425 421.37 156.714C421.442 157.119 421.573 157.459 421.762 157.746C422.069 158.242 422.461 158.628 422.938 158.882C423.414 159.144 424.113 159.274 425.04 159.274C425.661 159.274 426.32 159.176 427.019 158.974C427.718 158.771 428.305 158.53 428.782 158.242L428.142 156.603C427.404 156.91 426.803 157.093 426.327 157.139C425.948 156.662 425.778 155.761 425.83 154.429L425.974 149.159C426 148.349 425.974 147.624 425.922 146.984C425.863 146.344 425.726 145.763 425.51 145.241C424.557 142.818 422.03 141.61 417.922 141.61C416.14 141.61 414.35 141.871 412.541 142.393L412.398 147.2L414.037 147.343L415.82 143.569C416.414 143.451 417.008 143.393 417.602 143.393C419.908 143.393 421.044 144.581 421.024 146.958L420.992 149.485C420.352 149.387 419.646 149.342 418.889 149.342H418.882ZM421.057 152.333V152.868C421.031 154.076 420.717 155.101 420.11 155.931C419.503 156.76 418.778 157.191 417.922 157.211C417.211 157.211 416.662 156.936 416.283 156.394C415.904 155.846 415.715 155.121 415.715 154.22C415.715 153.077 415.963 152.117 416.466 151.333C417.152 151.164 417.961 151.085 418.889 151.085C419.646 151.085 420.365 151.131 421.024 151.229L421.063 152.333H421.057Z" fill="white"/>
<path d="M430.029 156.969V158.713H439.681V156.969L437.402 156.897V135.204C437.402 134.302 437.435 133.493 437.513 132.781L437.441 132.742L429.957 133.741L430.173 135.452L432.419 135.204V156.897L430.036 156.969H430.029Z" fill="white"/>
<path d="M442.385 150.876C442.385 153.632 443.175 155.722 444.755 157.145C446.335 158.569 448.36 159.281 450.828 159.281C453.538 159.281 455.837 158.367 457.737 156.538L456.594 155.01C455.053 156.342 453.519 157.002 451.997 157.002C450.476 157.002 449.346 156.492 448.686 155.474C448.02 154.448 447.668 152.764 447.615 150.413H457.842C457.959 149.819 458.018 149.094 458.018 148.238C458.018 146.194 457.345 144.575 456.007 143.373C454.661 142.172 452.879 141.577 450.645 141.577C449.15 141.577 447.772 141.936 446.512 142.661C445.251 143.386 444.252 144.451 443.501 145.848C442.757 147.252 442.378 148.924 442.378 150.87L442.385 150.876ZM449.078 143.536C449.457 143.419 449.966 143.36 450.613 143.36C452.559 143.432 453.532 144.836 453.532 147.566C453.532 148.062 453.519 148.434 453.492 148.669H447.648C447.746 146.39 448.216 144.679 449.072 143.543L449.078 143.536Z" fill="white"/>
<path d="M326.903 171.59V169.775H319.172V171.59L321.522 171.63L322.234 173.948V184.67C322.234 187.237 321.797 189.078 320.915 190.195C320.034 191.312 318.577 191.867 316.533 191.867C314.803 191.867 313.503 191.279 312.648 190.104C311.792 188.928 311.368 187.126 311.368 184.71V171.669L313.895 171.597V169.781H303.884V171.597L306.202 171.669V185.487C306.202 188.406 307.038 190.593 308.71 192.043C310.382 193.493 312.661 194.218 315.534 194.218C318.408 194.218 320.68 193.434 322.215 191.867C323.749 190.3 324.513 188.151 324.513 185.421V173.948L325.225 171.669L326.897 171.597L326.903 171.59Z" fill="white"/>
<path d="M347.611 181.686C347.624 181.125 347.546 180.55 347.382 179.956C347.095 179.002 346.494 178.225 345.567 177.624C344.64 177.017 343.49 176.717 342.112 176.717C339.879 176.717 337.861 177.526 336.059 179.139V178.532C336.059 177.748 336.092 177.037 336.17 176.397L336.098 176.325L328.902 177.324L329.117 179.035L331.364 178.826V191.86L328.98 191.932V193.643H338.456V191.932L336.353 191.86V181.17C337.705 179.766 338.952 179.068 340.095 179.068C340.996 179.068 341.642 179.342 342.034 179.884C342.426 180.432 342.622 181.262 342.622 182.378V191.854L340.519 191.926V193.637H349.994V191.926L347.611 191.854V182.698C347.611 182.581 347.611 182.241 347.631 181.686H347.611Z" fill="white"/>
<path d="M359.659 178.571C359.659 177.833 359.699 177.134 359.77 176.468L359.699 176.357L352.182 177.317L352.43 179.061L354.677 178.813V191.814L352.293 191.919V193.63H362.017V191.919L359.666 191.814V178.565L359.659 178.571Z" fill="white"/>
<path d="M359.032 173.882C359.503 173.419 359.738 172.805 359.738 172.028C359.738 171.251 359.503 170.682 359.032 170.238C358.562 169.801 357.929 169.579 357.132 169.579C356.296 169.579 355.637 169.807 355.166 170.271C354.696 170.735 354.461 171.349 354.461 172.126C354.461 172.903 354.703 173.477 355.186 173.915C355.669 174.352 356.322 174.575 357.139 174.575C357.955 174.575 358.569 174.346 359.039 173.882H359.032Z" fill="white"/>
<path d="M439.962 174.575C440.759 174.575 441.392 174.346 441.862 173.882C442.332 173.419 442.567 172.805 442.567 172.028C442.567 171.251 442.332 170.682 441.862 170.238C441.392 169.801 440.759 169.579 439.962 169.579C439.126 169.579 438.466 169.807 437.996 170.271C437.526 170.735 437.291 171.349 437.291 172.126C437.291 172.903 437.533 173.477 438.016 173.915C438.499 174.352 439.152 174.575 439.968 174.575H439.962Z" fill="white"/>
<path d="M375.547 178.787L377.507 178.891V181.738L374.124 189.966C373.889 189.111 373.628 188.301 373.34 187.544L369.958 178.891L372.628 178.787V177.076H363.473V178.787L364.968 178.891L370.95 193.852H374.516L380.746 178.891L382.241 178.787V177.076H375.547V178.787Z" fill="white"/>
<path d="M399.481 183.168C399.481 181.124 398.808 179.505 397.469 178.303C396.124 177.102 394.341 176.508 392.108 176.508C390.613 176.508 389.235 176.867 387.974 177.592C386.714 178.316 385.715 179.381 384.964 180.778C384.219 182.182 383.841 183.854 383.841 185.8C383.841 188.556 384.631 190.646 386.211 192.069C387.792 193.493 389.816 194.205 392.284 194.205C394.994 194.205 397.293 193.29 399.193 191.462L398.051 189.934C396.509 191.266 394.975 191.925 393.453 191.925C391.932 191.925 390.802 191.416 390.142 190.397C389.476 189.372 389.124 187.687 389.071 185.336H399.298C399.415 184.742 399.474 184.017 399.474 183.162L399.481 183.168ZM394.955 183.593H389.111C389.209 181.314 389.679 179.603 390.534 178.467C390.913 178.349 391.422 178.29 392.069 178.29C394.015 178.362 394.988 179.766 394.988 182.496C394.988 182.992 394.975 183.364 394.949 183.599L394.955 183.593Z" fill="white"/>
<path d="M402.504 191.932V193.643H412.404V191.932L409.877 191.828V182.496C410.23 181.856 410.589 181.353 410.948 181C411.686 180.857 412.385 180.785 413.051 180.785C414.069 180.785 414.964 180.883 415.722 181.072L416.29 176.69C415.865 176.573 415.434 176.514 415.01 176.514C414.846 176.514 414.592 176.54 414.265 176.586C413.384 176.684 412.541 177.102 411.738 177.853C410.928 178.604 410.217 179.511 409.603 180.576V178.545C409.603 177.735 409.635 177.01 409.714 176.37L409.642 176.338L402.413 177.298L402.661 179.041L404.907 178.793V191.834L402.524 191.939L402.504 191.932Z" fill="white"/>
<path d="M427.757 183.737L425.334 182.594C424.479 182.189 423.858 181.784 423.466 181.386C423.075 180.981 422.879 180.53 422.879 180.034C422.879 179.538 423.081 179.074 423.486 178.643C424.126 178.428 424.864 178.323 425.693 178.323C426.333 178.323 427.012 178.421 427.724 178.61L429.396 182.032L431.035 181.928L430.891 177.507C430.271 177.219 429.487 176.984 428.54 176.795C427.587 176.606 426.666 176.514 425.759 176.514C423.623 176.514 421.932 177.004 420.685 177.99C419.437 178.976 418.817 180.263 418.817 181.856C418.817 183.848 420.025 185.408 422.448 186.519L424.838 187.622C425.837 188.073 426.555 188.517 426.993 188.961C427.43 189.398 427.652 189.927 427.652 190.548C427.652 191.116 427.463 191.625 427.084 192.082C426.444 192.272 425.719 192.363 424.91 192.363C423.884 192.363 422.964 192.206 422.128 191.9L420.384 188.053L418.745 188.197L418.961 192.755C419.718 193.206 420.632 193.565 421.703 193.826C422.774 194.087 423.793 194.218 424.766 194.218C426.999 194.218 428.762 193.741 430.055 192.794C431.348 191.841 431.995 190.502 431.995 188.771C431.995 186.728 430.584 185.056 427.757 183.75V183.737Z" fill="white"/>
<path d="M442.496 178.571C442.496 177.833 442.535 177.134 442.607 176.468L442.535 176.357L435.018 177.317L435.267 179.061L437.513 178.813V191.814L435.129 191.919V193.63H444.853V191.919L442.502 191.814V178.565L442.496 178.571Z" fill="white"/>
<path d="M455.635 191.821C455.112 191.821 454.733 191.599 454.498 191.162C454.263 190.724 454.146 190.038 454.146 189.111V178.996H458.632V177.069H454.146V172.008L449.228 172.792L449.196 176.886L446.701 177.239V178.983H449.157V188.745C449.157 190.548 449.483 191.906 450.136 192.827C450.789 193.741 452.004 194.198 453.787 194.198C455.85 194.198 457.731 193.604 459.416 192.415L458.599 190.744C457.483 191.455 456.497 191.815 455.641 191.815L455.635 191.821Z" fill="white"/>
<path d="M471.412 173.726L467.676 166.817L464.359 169.2L470.204 174.62L471.412 173.726Z" fill="white"/>
<path d="M478.36 191.54C477.622 191.847 477.021 192.03 476.544 192.076C476.166 191.599 475.996 190.698 476.048 189.366L476.192 184.096C476.218 183.286 476.192 182.561 476.139 181.921C476.081 181.281 475.944 180.7 475.728 180.178C474.775 177.755 472.247 176.54 468.14 176.54C466.357 176.54 464.568 176.801 462.759 177.324L462.615 182.13L464.254 182.274L466.037 178.499C466.631 178.382 467.226 178.323 467.82 178.323C470.125 178.323 471.261 179.512 471.242 181.889L471.203 184.416C470.563 184.318 469.857 184.272 469.1 184.272C466.723 184.272 464.79 184.69 463.294 185.519C461.799 186.349 461.048 187.707 461.048 189.581C461.048 190.985 461.544 192.102 462.543 192.944C463.543 193.787 464.927 194.211 466.71 194.211C468.845 194.211 470.471 193.356 471.588 191.645C471.66 192.05 471.79 192.389 471.98 192.677C472.287 193.173 472.678 193.558 473.155 193.813C473.632 194.074 474.331 194.205 475.258 194.205C475.878 194.205 476.538 194.107 477.237 193.904C477.935 193.702 478.523 193.46 479 193.173L478.36 191.534V191.54ZM471.274 187.798C471.248 189.007 470.935 190.032 470.328 190.861C469.72 191.69 468.995 192.121 468.14 192.141C467.428 192.141 466.88 191.867 466.501 191.325C466.122 190.776 465.933 190.051 465.933 189.15C465.933 188.007 466.181 187.047 466.684 186.264C467.369 186.094 468.179 186.016 469.106 186.016C469.864 186.016 470.582 186.061 471.242 186.159L471.274 187.263V187.798Z" fill="white"/>
<path d="M318.192 205.378C317.017 204.927 315.737 204.699 314.359 204.699H304.132V206.122L307.267 206.194V227.071L304.132 227.143V228.567H314.359V227.143L310.689 227.071V218.595H314.463C315.724 218.595 316.938 218.301 318.114 217.707C319.289 217.113 320.249 216.244 321 215.108C321.745 213.965 322.123 212.653 322.123 211.151C322.123 209.649 321.758 208.493 321.039 207.52C320.314 206.547 319.368 205.835 318.192 205.384V205.378ZM317.768 214.925C317.258 215.826 316.527 216.525 315.573 217.028H310.695V206.233H314.117C315.639 206.233 316.755 206.723 317.467 207.696C318.179 208.669 318.538 209.988 318.538 211.653C318.538 212.933 318.284 214.03 317.774 214.932L317.768 214.925Z" fill="white"/>
<path d="M338.586 227.568C338.162 227.117 337.966 226.105 338.018 224.538L338.162 218.804C338.207 217.335 338.103 216.192 337.842 215.382C337.482 214.168 336.718 213.26 335.543 212.659C334.368 212.052 332.866 211.751 331.037 211.751C329.45 211.751 327.831 211.987 326.192 212.463L326.015 217.061L327.295 217.132L328.758 213.358C329.516 213.195 330.293 213.11 331.076 213.11C332.382 213.11 333.342 213.423 333.963 214.05C334.583 214.677 334.89 215.741 334.89 217.237V219.62C334.061 219.503 333.277 219.444 332.539 219.444C327.243 219.444 324.592 221.188 324.592 224.681C324.592 225.961 325.055 227.019 325.983 227.849C326.91 228.678 328.19 229.096 329.829 229.096C330.854 229.096 331.814 228.841 332.715 228.332C333.617 227.822 334.354 227.104 334.923 226.177C334.949 226.556 334.981 226.869 335.027 227.117C335.073 227.365 335.171 227.6 335.314 227.809C335.576 228.234 335.909 228.554 336.314 228.769C336.718 228.985 337.287 229.089 338.024 229.089C338.573 229.089 339.115 229.004 339.664 228.841C340.212 228.671 340.695 228.475 341.126 228.234L340.591 226.987C339.853 227.293 339.187 227.483 338.599 227.555L338.586 227.568ZM334.883 223.042C334.74 224.25 334.27 225.289 333.479 226.144C332.683 227 331.762 227.424 330.717 227.424C329.836 227.424 329.176 227.13 328.725 226.536C328.275 225.942 328.046 225.217 328.046 224.361C328.046 223.029 328.327 222.011 328.902 221.299C329.973 220.966 331.148 220.802 332.428 220.802C333.186 220.802 334.008 220.861 334.883 220.985V223.049V223.042Z" fill="white"/>
<path d="M358.882 204.914C358.882 203.895 358.908 203.112 358.954 202.563L358.921 202.531L352.796 203.595L353.044 204.947L355.61 204.555V212.502C354.611 212.078 353.553 211.862 352.437 211.862C350.706 211.862 349.146 212.261 347.768 213.057C346.39 213.854 345.319 214.945 344.542 216.336C343.771 217.727 343.386 219.274 343.386 220.985C343.386 223.408 344 225.36 345.221 226.843C346.442 228.332 348.146 229.07 350.334 229.07C351.379 229.07 352.352 228.848 353.253 228.41C354.154 227.973 354.977 227.385 355.708 226.647C355.754 227.026 355.878 227.809 356.061 228.998L356.244 229.102L361.586 228.43V227.254L358.876 227.182V204.921L358.882 204.914ZM355.604 224.472C355.036 225.328 354.363 226.02 353.593 226.555C352.822 227.091 351.993 227.359 351.118 227.359C348.316 227.359 346.919 225.099 346.919 220.593C346.919 217.694 347.728 215.487 349.341 213.965C350.223 213.586 351.229 213.397 352.371 213.397C353.514 213.397 354.592 213.671 355.617 214.213V224.472H355.604Z" fill="white"/>
<path d="M376.671 212.587C375.449 211.98 374.209 211.679 372.948 211.679C371.361 211.679 369.912 212.058 368.606 212.822C367.3 213.58 366.274 214.651 365.523 216.029C364.779 217.407 364.4 218.974 364.4 220.73C364.4 222.487 364.772 224.1 365.523 225.36C366.274 226.621 367.26 227.555 368.501 228.175C369.735 228.795 371.068 229.102 372.491 229.102C373.915 229.102 375.378 228.73 376.657 227.979C377.937 227.228 378.963 226.17 379.72 224.792C380.478 223.414 380.856 221.828 380.856 220.019C380.856 218.21 380.465 216.649 379.681 215.389C378.897 214.128 377.892 213.195 376.671 212.594V212.587ZM375.156 227.176C374.561 227.509 373.791 227.672 372.837 227.672C371.107 227.672 369.853 227.058 369.076 225.818C368.305 224.583 367.92 222.657 367.92 220.045C367.92 217.433 368.619 215.356 370.023 213.737C370.761 213.312 371.629 213.097 372.622 213.097C374.215 213.097 375.391 213.723 376.168 214.984C376.938 216.244 377.324 218.033 377.324 220.365C377.324 223.212 376.599 225.484 375.149 227.169L375.156 227.176Z" fill="white"/>
<path d="M394.035 213.567L396.242 213.639V216.349L392.5 225.576C392.265 224.766 392.095 224.244 392.004 224.009L387.909 213.645L390.756 213.573V212.222H383.025V213.573L384.553 213.645L390.645 228.782H392.853L399.089 213.645L400.584 213.573V212.222H394.028V213.573L394.035 213.567Z" fill="white"/>
<path d="M416.649 227.568C416.224 227.117 416.028 226.105 416.081 224.538L416.224 218.804C416.27 217.335 416.166 216.192 415.904 215.382C415.545 214.168 414.781 213.26 413.606 212.659C412.43 212.052 410.928 211.751 409.1 211.751C407.513 211.751 405.893 211.987 404.254 212.463L404.078 217.061L405.358 217.132L406.821 213.358C407.578 213.195 408.355 213.11 409.139 213.11C410.445 213.11 411.405 213.423 412.025 214.05C412.646 214.677 412.953 215.741 412.953 217.237V219.62C412.123 219.503 411.34 219.444 410.602 219.444C405.306 219.444 402.654 221.188 402.654 224.681C402.654 225.961 403.118 227.019 404.045 227.849C404.973 228.678 406.253 229.096 407.892 229.096C408.917 229.096 409.877 228.841 410.778 228.332C411.679 227.822 412.417 227.104 412.985 226.177C413.011 226.556 413.044 226.869 413.09 227.117C413.135 227.365 413.233 227.6 413.377 227.809C413.638 228.234 413.971 228.554 414.376 228.769C414.781 228.985 415.349 229.089 416.087 229.089C416.636 229.089 417.178 229.004 417.726 228.841C418.275 228.671 418.758 228.475 419.189 228.234L418.654 226.987C417.916 227.293 417.25 227.483 416.662 227.555L416.649 227.568ZM412.946 223.042C412.802 224.25 412.332 225.289 411.542 226.144C410.745 227 409.825 227.424 408.78 227.424C407.898 227.424 407.239 227.13 406.788 226.536C406.337 225.942 406.109 225.217 406.109 224.361C406.109 223.029 406.39 222.011 406.964 221.299C408.035 220.966 409.211 220.802 410.491 220.802C411.248 220.802 412.071 220.861 412.946 220.985V223.049V223.042Z" fill="white"/>
<path d="M306.092 78.7887H307.626C308.913 78.7887 309.311 79.3503 309.344 80.6368C309.376 81.4988 309.363 82.1518 309.429 82.8636C309.481 83.3272 309.559 83.6929 309.742 83.9019H311.871C311.623 83.7386 311.342 83.4578 311.309 82.8766C311.277 82.1648 311.257 81.2441 311.244 80.4866C311.179 78.8344 310.565 78.1944 309.396 78.0769V78.0443C310.682 77.8483 311.362 76.6729 311.362 75.1579C311.362 72.9441 310.023 72.1213 308.371 72.1213H304.211V83.9084H306.092V78.7887ZM306.092 73.5384H307.692C308.932 73.5384 309.474 74.1979 309.474 75.4517C309.474 76.6402 308.795 77.3651 307.594 77.3651H306.092V73.5384Z" fill="white"/>
<path d="M320.373 82.3216H315.75V78.5601H319.975V76.9733H315.75V73.7082H320.243V72.1213H313.869V83.9084H320.373V82.3216Z" fill="white"/>
<path d="M325.819 84.137C327.204 84.137 327.883 83.6276 328.392 82.5371H328.425V83.9084H329.842V77.7047H326.081V79.1218H328.059C328.059 81.6947 327.53 82.7395 326.094 82.7199C324.82 82.7199 324.193 81.7665 324.193 77.9659C324.193 74.1653 324.905 73.3098 326.244 73.3098C327.583 73.3098 327.896 74.3481 327.896 75.2232V75.504H329.679V75.2885C329.679 74.2175 329.182 71.8862 326.231 71.8862C323.508 71.8862 322.319 73.7996 322.319 78.0116C322.319 82.2236 323.24 84.137 325.819 84.137Z" fill="white"/>
<path d="M334.054 72.1213H332.173V83.9084H334.054V72.1213Z" fill="white"/>
<path d="M340.33 84.137C343.04 84.137 344.222 82.2236 344.222 78.0116C344.222 73.7996 343.033 71.8862 340.33 71.8862C337.626 71.8862 336.438 73.7996 336.438 78.0116C336.438 82.2236 337.626 84.137 340.33 84.137ZM340.33 73.3098C341.453 73.3098 342.341 74.002 342.341 77.9659C342.341 81.9298 341.453 82.7199 340.33 82.7199C339.206 82.7199 338.318 82.0277 338.318 77.9659C338.318 73.9041 339.206 73.3098 340.33 73.3098Z" fill="white"/>
<path d="M348.466 74.8967H348.499L351.914 83.9084H354.206V72.1213H352.424V80.9045H352.391L348.976 72.1213H346.684V83.9084H348.466V74.8967Z" fill="white"/>
<path d="M363.453 82.3216H358.83V78.5601H363.055V76.9733H358.83V73.7082H363.323V72.1213H356.949V83.9084H363.453V82.3216Z" fill="white"/>
<path d="M377.944 78.0183C377.944 74.5377 377.48 72.128 373.784 72.128H370.434V83.9086H373.784C377.48 83.9086 377.944 81.4989 377.944 78.0183ZM372.315 73.5451H373.869C375.502 73.5451 376.063 74.7009 376.063 78.0183C376.063 81.3357 375.423 82.4915 373.869 82.4915H372.315V73.5451Z" fill="white"/>
<path d="M386.91 82.3216H382.287V78.5601H386.512V76.9733H382.287V73.7082H386.773V72.1213H380.406V83.9084H386.91V82.3216Z" fill="white"/>
<path d="M395.36 82.3216H390.802V72.1213H388.922V83.9084H395.36V82.3216Z" fill="white"/>
<path d="M405.495 83.9084L408.46 72.1213H406.468L404.352 81.5314H404.32L402.322 72.1213H400.323L403.099 83.9084H405.495Z" fill="white"/>
<path d="M416.636 82.3216H412.012V78.5601H416.237V76.9733H412.012V73.7082H416.499V72.1213H410.132V83.9084H416.636V82.3216Z" fill="white"/>
<path d="M420.645 74.8967H420.678L424.093 83.9084H426.385V72.1213H424.603V80.9045H424.57L421.155 72.1213H418.862V83.9084H420.645V74.8967Z" fill="white"/>
<path d="M435.632 82.3216H431.009V78.5601H435.234V76.9733H431.009V73.7082H435.495V72.1213H429.128V83.9084H435.632V82.3216Z" fill="white"/>
<path d="M439.792 83.9084H441.673V73.7082H444.429V72.1213H436.984V73.7082H439.792V83.9084Z" fill="white"/>
<path d="M449.418 84.137C452.128 84.137 453.31 82.2236 453.31 78.0116C453.31 73.7996 452.121 71.8862 449.418 71.8862C446.714 71.8862 445.526 73.7996 445.526 78.0116C445.526 82.2236 446.714 84.137 449.418 84.137ZM449.418 73.3098C450.541 73.3098 451.429 74.002 451.429 77.9659C451.429 81.9298 450.541 82.7199 449.418 82.7199C448.294 82.7199 447.406 82.0277 447.406 77.9659C447.406 73.9041 448.294 73.3098 449.418 73.3098Z" fill="white"/>
<path d="M304.74 91.6794C304.609 91.7904 304.537 91.9733 304.537 92.1561C304.537 92.339 304.609 92.5218 304.74 92.6524C304.87 92.783 305.034 92.8549 305.216 92.8549C305.399 92.8549 305.582 92.783 305.713 92.6524C305.843 92.5218 305.915 92.339 305.915 92.1561C305.915 91.9733 305.843 91.7904 305.713 91.6794C305.458 91.4247 304.994 91.4247 304.74 91.6794Z" fill="white"/>
<path d="M446.374 91.4772C445.989 91.4772 445.676 91.771 445.676 92.1563C445.676 92.5416 445.989 92.8551 446.374 92.8551C446.76 92.8551 447.054 92.5416 447.054 92.1563C447.054 91.771 446.74 91.4772 446.374 91.4772Z" fill="white"/>
<path d="M443.345 92.1563C443.345 91.771 443.031 91.4772 442.665 91.4772C442.28 91.4772 441.967 91.771 441.967 92.1563C441.967 92.5416 442.28 92.8551 442.665 92.8551C443.051 92.8551 443.345 92.5416 443.345 92.1563Z" fill="white"/>
<path d="M405.515 92.8551C405.88 92.8551 406.194 92.5416 406.194 92.1563C406.194 91.771 405.88 91.4772 405.515 91.4772C405.129 91.4772 404.816 91.771 404.816 92.1563C404.816 92.5416 405.129 92.8551 405.515 92.8551Z" fill="white"/>
<path d="M402.478 92.1563C402.478 91.771 402.165 91.4772 401.799 91.4772C401.414 91.4772 401.1 91.771 401.1 92.1563C401.1 92.5416 401.414 92.8551 401.799 92.8551C402.184 92.8551 402.478 92.5416 402.478 92.1563Z" fill="white"/>
<path d="M449.392 92.1563C449.392 92.5416 449.705 92.8551 450.071 92.8551C450.456 92.8551 450.769 92.5416 450.769 92.1563C450.769 91.771 450.456 91.4772 450.071 91.4772C449.685 91.4772 449.392 91.771 449.392 92.1563Z" fill="white"/>
<path d="M438.244 92.1563C438.244 92.5416 438.558 92.8551 438.943 92.8551C439.328 92.8551 439.622 92.5416 439.622 92.1563C439.622 91.771 439.309 91.4772 438.943 91.4772C438.558 91.4772 438.244 91.771 438.244 92.1563Z" fill="white"/>
<path d="M434.529 92.1563C434.529 92.5416 434.842 92.8551 435.227 92.8551C435.613 92.8551 435.907 92.5416 435.907 92.1563C435.907 91.771 435.613 91.4772 435.227 91.4772C434.842 91.4772 434.529 91.771 434.529 92.1563Z" fill="white"/>
<path d="M420.365 91.4772C419.999 91.4772 419.685 91.771 419.685 92.1563C419.685 92.5416 419.999 92.8551 420.365 92.8551C420.75 92.8551 421.063 92.5416 421.063 92.1563C421.063 91.771 420.75 91.4772 420.365 91.4772Z" fill="white"/>
<path d="M432.191 92.1563C432.191 91.771 431.897 91.4772 431.512 91.4772C431.126 91.4772 430.813 91.771 430.813 92.1563C430.813 92.5416 431.126 92.8551 431.512 92.8551C431.897 92.8551 432.191 92.5416 432.191 92.1563Z" fill="white"/>
<path d="M413.632 92.1563C413.632 91.771 413.318 91.4772 412.933 91.4772C412.548 91.4772 412.254 91.771 412.254 92.1563C412.254 92.5416 412.568 92.8551 412.933 92.8551C413.318 92.8551 413.632 92.5416 413.632 92.1563Z" fill="white"/>
<path d="M427.796 92.8551C428.181 92.8551 428.475 92.5416 428.475 92.1563C428.475 91.771 428.181 91.4772 427.796 91.4772C427.411 91.4772 427.097 91.771 427.097 92.1563C427.097 92.5416 427.411 92.8551 427.796 92.8551Z" fill="white"/>
<path d="M453.793 92.8551C454.178 92.8551 454.492 92.5416 454.492 92.1563C454.492 91.771 454.178 91.4772 453.793 91.4772C453.408 91.4772 453.114 91.771 453.114 92.1563C453.114 92.5416 453.427 92.8551 453.793 92.8551Z" fill="white"/>
<path d="M424.08 92.8551C424.466 92.8551 424.779 92.5416 424.779 92.1563C424.779 91.771 424.466 91.4772 424.08 91.4772C423.695 91.4772 423.401 91.771 423.401 92.1563C423.401 92.5416 423.695 92.8551 424.08 92.8551Z" fill="white"/>
<path d="M390.652 92.8551C391.037 92.8551 391.331 92.5416 391.331 92.1563C391.331 91.771 391.037 91.4772 390.652 91.4772C390.267 91.4772 389.953 91.771 389.953 92.1563C389.953 92.5416 390.267 92.8551 390.652 92.8551Z" fill="white"/>
<path d="M350.471 92.1563C350.471 91.771 350.177 91.4772 349.792 91.4772C349.407 91.4772 349.093 91.771 349.093 92.1563C349.093 92.5416 349.407 92.8551 349.792 92.8551C350.177 92.8551 350.471 92.5416 350.471 92.1563Z" fill="white"/>
<path d="M354.187 92.1563C354.187 91.771 353.893 91.4772 353.508 91.4772C353.122 91.4772 352.809 91.771 352.809 92.1563C352.809 92.5416 353.122 92.8551 353.508 92.8551C353.893 92.8551 354.187 92.5416 354.187 92.1563Z" fill="white"/>
<path d="M346.076 92.8551C346.462 92.8551 346.775 92.5416 346.775 92.1563C346.775 91.771 346.462 91.4772 346.076 91.4772C345.691 91.4772 345.397 91.771 345.397 92.1563C345.397 92.5416 345.691 92.8551 346.076 92.8551Z" fill="white"/>
<path d="M339.344 92.1563C339.344 91.771 339.03 91.4772 338.645 91.4772C338.26 91.4772 337.966 91.771 337.966 92.1563C337.966 92.5416 338.26 92.8551 338.645 92.8551C339.03 92.8551 339.344 92.5416 339.344 92.1563Z" fill="white"/>
<path d="M334.929 92.8551C335.314 92.8551 335.628 92.5416 335.628 92.1563C335.628 91.771 335.314 91.4772 334.929 91.4772C334.544 91.4772 334.25 91.771 334.25 92.1563C334.25 92.5416 334.563 92.8551 334.929 92.8551Z" fill="white"/>
<path d="M343.059 92.1563C343.059 91.771 342.746 91.4772 342.361 91.4772C341.975 91.4772 341.681 91.771 341.681 92.1563C341.681 92.5416 341.995 92.8551 342.361 92.8551C342.746 92.8551 343.059 92.5416 343.059 92.1563Z" fill="white"/>
<path d="M323.096 92.1563C323.096 92.5416 323.41 92.8551 323.795 92.8551C324.18 92.8551 324.474 92.5416 324.474 92.1563C324.474 91.771 324.161 91.4772 323.795 91.4772C323.41 91.4772 323.096 91.771 323.096 92.1563Z" fill="white"/>
<path d="M312.648 92.8551C313.033 92.8551 313.327 92.5416 313.327 92.1563C313.327 91.771 313.033 91.4772 312.648 91.4772C312.263 91.4772 311.949 91.771 311.949 92.1563C311.949 92.5416 312.263 92.8551 312.648 92.8551Z" fill="white"/>
<path d="M308.253 92.1563C308.253 92.5416 308.547 92.8551 308.932 92.8551C309.318 92.8551 309.631 92.5416 309.631 92.1563C309.631 91.771 309.318 91.4772 308.932 91.4772C308.547 91.4772 308.253 91.771 308.253 92.1563Z" fill="white"/>
<path d="M315.665 92.1563C315.665 92.5416 315.978 92.8551 316.364 92.8551C316.749 92.8551 317.043 92.5416 317.043 92.1563C317.043 91.771 316.749 91.4772 316.364 91.4772C315.978 91.4772 315.665 91.771 315.665 92.1563Z" fill="white"/>
<path d="M328.196 92.1563C328.196 91.771 327.883 91.4772 327.517 91.4772C327.132 91.4772 326.819 91.771 326.819 92.1563C326.819 92.5416 327.132 92.8551 327.517 92.8551C327.903 92.8551 328.196 92.5416 328.196 92.1563Z" fill="white"/>
<path d="M331.214 92.8551C331.599 92.8551 331.912 92.5416 331.912 92.1563C331.912 91.771 331.599 91.4772 331.214 91.4772C330.828 91.4772 330.534 91.771 330.534 92.1563C330.534 92.5416 330.848 92.8551 331.214 92.8551Z" fill="white"/>
<path d="M319.381 92.1563C319.381 92.5416 319.694 92.8551 320.079 92.8551C320.465 92.8551 320.758 92.5416 320.758 92.1563C320.758 91.771 320.465 91.4772 320.079 91.4772C319.694 91.4772 319.381 91.771 319.381 92.1563Z" fill="white"/>
<path d="M398.083 92.8551C398.468 92.8551 398.762 92.5416 398.762 92.1563C398.762 91.771 398.468 91.4772 398.083 91.4772C397.698 91.4772 397.384 91.771 397.384 92.1563C397.384 92.5416 397.698 92.8551 398.083 92.8551Z" fill="white"/>
<path d="M395.047 92.1563C395.047 91.771 394.753 91.4772 394.368 91.4772C393.982 91.4772 393.669 91.771 393.669 92.1563C393.669 92.5416 393.982 92.8551 394.368 92.8551C394.753 92.8551 395.047 92.5416 395.047 92.1563Z" fill="white"/>
<path d="M386.257 92.1563C386.257 92.5416 386.551 92.8551 386.936 92.8551C387.321 92.8551 387.635 92.5416 387.635 92.1563C387.635 91.771 387.321 91.4772 386.936 91.4772C386.551 91.4772 386.257 91.771 386.257 92.1563Z" fill="white"/>
<path d="M383.919 92.1563C383.919 91.771 383.606 91.4772 383.22 91.4772C382.835 91.4772 382.541 91.771 382.541 92.1563C382.541 92.5416 382.835 92.8551 383.22 92.8551C383.606 92.8551 383.919 92.5416 383.919 92.1563Z" fill="white"/>
<path d="M409.217 92.8551C409.603 92.8551 409.916 92.5416 409.916 92.1563C409.916 91.771 409.603 91.4772 409.217 91.4772C408.832 91.4772 408.538 91.771 408.538 92.1563C408.538 92.5416 408.852 92.8551 409.217 92.8551Z" fill="white"/>
<path d="M379.505 92.8551C379.89 92.8551 380.204 92.5416 380.204 92.1563C380.204 91.771 379.89 91.4772 379.505 91.4772C379.12 91.4772 378.826 91.771 378.826 92.1563C378.826 92.5416 379.12 92.8551 379.505 92.8551Z" fill="white"/>
<path d="M415.963 92.1563C415.963 92.5416 416.257 92.8551 416.642 92.8551C417.028 92.8551 417.341 92.5416 417.341 92.1563C417.341 91.771 417.028 91.4772 416.642 91.4772C416.257 91.4772 415.963 91.771 415.963 92.1563Z" fill="white"/>
<path d="M376.488 92.1563C376.488 91.771 376.174 91.4772 375.789 91.4772C375.404 91.4772 375.11 91.771 375.11 92.1563C375.11 92.5416 375.423 92.8551 375.789 92.8551C376.155 92.8551 376.488 92.5416 376.488 92.1563Z" fill="white"/>
<path d="M364.655 92.8551C365.021 92.8551 365.334 92.5416 365.334 92.1563C365.334 91.771 365.021 91.4772 364.655 91.4772C364.27 91.4772 363.956 91.771 363.956 92.1563C363.956 92.5416 364.27 92.8551 364.655 92.8551Z" fill="white"/>
<path d="M361.625 92.1563C361.625 91.771 361.311 91.4772 360.946 91.4772C360.56 91.4772 360.247 91.771 360.247 92.1563C360.247 92.5416 360.56 92.8551 360.946 92.8551C361.331 92.8551 361.625 92.5416 361.625 92.1563Z" fill="white"/>
<path d="M371.388 92.1563C371.388 92.5416 371.701 92.8551 372.067 92.8551C372.432 92.8551 372.766 92.5416 372.766 92.1563C372.766 91.771 372.452 91.4772 372.067 91.4772C371.682 91.4772 371.388 91.771 371.388 92.1563Z" fill="white"/>
<path d="M357.224 92.8551C357.609 92.8551 357.903 92.5416 357.903 92.1563C357.903 91.771 357.609 91.4772 357.224 91.4772C356.838 91.4772 356.525 91.771 356.525 92.1563C356.525 92.5416 356.838 92.8551 357.224 92.8551Z" fill="white"/>
<path d="M368.377 92.8551C368.743 92.8551 369.056 92.5416 369.056 92.1563C369.056 91.771 368.743 91.4772 368.377 91.4772C367.992 91.4772 367.679 91.771 367.679 92.1563C367.679 92.5416 367.992 92.8551 368.377 92.8551Z" fill="white"/>
<path d="M457.247 92.8028C457.339 92.8419 457.411 92.855 457.502 92.855C457.685 92.855 457.868 92.7832 457.998 92.6526C458.129 92.522 458.201 92.3391 458.201 92.1563C458.201 92.0648 458.181 91.9734 458.149 91.9016C458.109 91.8102 458.057 91.7383 457.998 91.6796C457.796 91.4771 457.502 91.4249 457.241 91.5163C457.149 91.5555 457.078 91.6077 457.019 91.6796C456.947 91.7318 456.908 91.8102 456.869 91.9016C456.83 91.9734 456.81 92.0648 456.81 92.1563C456.81 92.3391 456.882 92.522 457.012 92.6526C457.065 92.7113 457.143 92.7636 457.234 92.8028H457.247Z" fill="white"/>
<path d="M283.21 72.1213H281.368V228.567H283.21V72.1213Z" fill="white"/>
<path d="M355.565 122.078L353.214 121.974V108.724C353.214 107.986 353.253 107.287 353.325 106.621L353.253 106.51L345.737 107.47L345.985 109.213L348.231 108.965V121.967L345.848 122.071V123.782H355.571V122.071L355.565 122.078Z" fill="white"/>
<path d="M348.009 102.271C348.009 103.022 348.251 103.623 348.734 104.061C349.217 104.498 349.87 104.72 350.687 104.72C351.503 104.72 352.117 104.492 352.587 104.028C353.057 103.564 353.292 102.951 353.292 102.174C353.292 101.396 353.057 100.828 352.587 100.384C352.117 99.9467 351.483 99.7247 350.687 99.7247C349.851 99.7247 349.191 99.9533 348.721 100.417C348.251 100.881 348.016 101.494 348.016 102.271H348.009Z" fill="white"/>
</svg>
