<svg width="600" height="300" viewBox="0 0 600 300" fill="none" xmlns="http://www.w3.org/2000/svg">
<path d="M60.7571 187.476H136.232V112.001H60.7571V187.476ZM102.227 134.532L123.842 126.608C124.566 128.946 125.182 131.323 125.689 133.734L109.133 139.795L125.029 145.623C125.102 146.982 125.144 148.351 125.144 149.732C125.144 151.113 125.102 152.479 125.029 153.841L109.133 159.669L125.696 165.73C125.188 168.148 124.573 170.521 123.842 172.853L102.227 164.955C101.547 161.64 101.094 158.288 100.868 154.913L114.952 149.748L100.855 144.574C101.085 141.199 101.544 137.843 102.227 134.532ZM71.9731 153.847C71.8933 152.485 71.8551 151.117 71.8582 149.739C71.8614 148.36 71.8997 146.992 71.9731 145.63L87.8656 139.795L71.3096 133.734C71.8168 131.323 72.4356 128.946 73.1598 126.608L94.7751 134.532C95.4514 137.846 95.9076 141.199 96.1341 144.574L82.0503 149.739L96.1341 154.913C95.9076 158.288 95.4514 161.64 94.7751 164.955L73.1629 172.856C72.4324 170.525 71.8168 168.151 71.3096 165.733L87.872 159.672L71.9731 153.847Z" fill="white"/>
<path d="M268.668 130.289C263.529 130.343 258.788 133.064 256.144 137.47V131.623H247.617V174.643H256.642V151.337C256.654 144.695 262.039 139.317 268.681 139.314C272.69 139.326 275.935 142.577 275.941 146.587V174.659H284.965V146.587C284.956 137.591 277.664 130.299 268.668 130.289Z" fill="white"/>
<path d="M179.425 130.289C174.091 130.235 169.019 132.596 165.625 136.711V124.621H156.61V174.646H165.14V168.387C168.518 172.863 173.817 175.472 179.425 175.421C191.416 175.421 201.091 166.374 201.091 152.855C201.091 139.336 191.425 130.289 179.425 130.289ZM179.179 167.312C171.702 167.312 165.634 160.967 165.634 153.5V152.224C165.634 144.756 171.695 138.424 179.179 138.424C186.663 138.424 192.079 145.4 192.079 152.868C192.079 160.336 186.656 167.312 179.179 167.312Z" fill="white"/>
<path d="M310.903 138.979C316.16 138.979 320.416 141.722 322.837 145.901L329.855 141.939C325.95 134.921 318.932 130.292 310.894 130.292C298.43 130.292 288.328 140.395 288.328 152.858C288.328 165.322 298.43 175.424 310.894 175.424C318.932 175.424 325.95 170.78 329.855 163.778L322.837 159.816C320.422 163.998 316.16 166.735 310.903 166.735C303.429 166.735 297.346 160.323 297.346 152.855C297.346 145.387 303.426 138.979 310.903 138.979Z" fill="white"/>
<path d="M521.924 130.289C514.361 130.315 507.397 134.407 503.7 141.004L510.791 145.011C513.343 140.912 517.069 139.097 521.592 139.097C526.116 139.097 530.225 143.036 530.228 147.617H514.444C506.765 147.617 500.542 153.841 500.542 161.522C500.542 169.204 506.765 175.424 514.444 175.424C522.581 175.424 527.385 171.258 530.713 167.335V174.646H539.255V147.617C539.243 138.05 531.491 130.299 521.924 130.289ZM514.897 167.507C511.598 167.507 508.925 164.834 508.925 161.535C508.925 158.237 511.598 155.56 514.897 155.56H530.148C529.778 160.808 524.017 167.507 514.897 167.507Z" fill="white"/>
<path d="M479.523 138.979C484.777 138.979 489.026 141.722 491.441 145.901L498.459 141.939C494.557 134.921 487.543 130.292 479.513 130.292C467.05 130.292 456.947 140.395 456.947 152.858C456.947 165.322 467.05 175.427 479.513 175.427C487.543 175.427 494.557 170.783 498.459 163.781L491.441 159.816C489.026 163.998 484.777 166.735 479.523 166.735C472.055 166.735 465.978 160.323 465.978 152.858C465.978 145.394 472.039 138.979 479.523 138.979Z" fill="white"/>
<path d="M417.366 145.352C413.219 133.996 400.638 127.431 389.179 131.6C377.446 135.798 371.338 148.711 375.532 160.444C379.73 172.177 392.643 178.286 404.376 174.091C404.459 174.062 404.539 174.03 404.619 174.002C409.63 172.148 413.745 168.448 416.122 163.663L409.273 159.79C407.621 162.757 404.95 165.022 401.757 166.17C396.248 168.173 390.216 166.333 386.445 162.173C385.96 161.618 385.508 161.041 385.086 160.438L418.227 148.38C418.01 147.352 417.723 146.341 417.366 145.352ZM382.853 152.342C383.074 146.727 386.509 141.438 392.015 139.435C397.502 137.441 403.649 138.998 407.525 143.365L382.853 152.342Z" fill="white"/>
<path d="M452.714 127.153L443.69 130.436V139.352L452.714 136.066V127.153Z" fill="white"/>
<path d="M452.714 142.612H443.69V174.643H452.714V142.612Z" fill="white"/>
<path d="M430.241 125.964H421.714V159.356C421.714 168.343 429.118 175.625 438.012 175.281V167.453C433.501 167.134 430.738 163.369 430.738 159.36V144.064L438.012 141.416V132.503L430.241 135.329V125.964Z" fill="white"/>
<path d="M353.32 130.289C345.757 130.315 338.793 134.407 335.096 141.004L342.187 145.011C344.739 140.912 348.465 139.097 352.989 139.097C357.512 139.097 361.621 143.036 361.624 147.617H345.84C338.162 147.617 331.935 153.841 331.935 161.522C331.935 169.204 338.162 175.424 345.84 175.424C353.978 175.424 358.782 171.258 362.109 167.335V174.646H370.642V151.812L370.652 147.617C370.639 138.05 362.887 130.299 353.32 130.289ZM346.29 167.507C342.991 167.507 340.318 164.834 340.318 161.535C340.318 158.237 342.991 155.56 346.29 155.56H361.541C361.171 160.808 355.41 167.507 346.29 167.507Z" fill="white"/>
<path d="M224.617 130.289C217.054 130.315 210.09 134.407 206.393 141.004L213.484 145.011C216.036 140.912 219.762 139.097 224.285 139.097C228.809 139.097 232.918 143.036 232.921 147.617H217.146C209.468 147.617 203.244 153.841 203.244 161.522C203.244 169.204 209.468 175.424 217.146 175.424C225.284 175.424 230.088 171.258 233.415 167.335V174.646H241.948V147.617C241.936 138.05 234.184 130.299 224.617 130.289ZM217.596 167.507C214.298 167.507 211.621 164.834 211.621 161.535C211.621 158.237 214.298 155.56 217.596 155.56H232.847C232.477 160.808 226.716 167.507 217.596 167.507Z" fill="white"/>
</svg>
