<svg width="600" height="300" viewBox="0 0 600 300" fill="none" xmlns="http://www.w3.org/2000/svg">
<g clip-path="url(#clip0_147_104)">
<path d="M164.869 178.708C166.868 178.708 168.957 179.263 170.727 180.308L169.52 181.964C168.133 181.181 166.574 180.748 164.869 180.748C161.099 180.748 158.57 183.245 158.57 186.819C158.57 190.679 160.928 193.265 164.869 193.265C166.427 193.265 167.839 192.914 168.785 192.368V188.214H164.371V186.444H171.021V193.526C169.373 194.628 167.137 195.272 164.812 195.272C159.516 195.272 156.13 191.878 156.13 186.819C156.13 182.111 159.63 178.717 164.869 178.717V178.708Z" fill="white"/>
<path d="M189.886 188.582C192.415 187.823 193.362 185.881 193.362 184.053C193.362 181.613 191.795 179.084 187.267 179.084H179.882V194.913H182.322V188.933H187.618L190.8 194.913H193.419L189.886 188.582ZM187.177 187.04H182.322V181.059H187.21C189.919 181.059 190.914 182.511 190.914 184.053C190.914 185.595 189.886 187.04 187.177 187.04Z" fill="white"/>
<path d="M201.807 179.084H204.247V188.867C204.247 191.739 206.221 193.257 208.751 193.257C211.28 193.257 213.287 191.748 213.287 188.867V179.084H215.76V188.867C215.76 193.053 212.667 195.289 208.751 195.289C204.834 195.289 201.807 193.053 201.807 188.867V179.084Z" fill="white"/>
<path d="M231.908 179.084H224.727V194.913H227.175V189.014H231.883C236.387 189.014 237.97 186.403 237.97 184.053C237.97 181.703 236.412 179.084 231.908 179.084ZM231.826 187.04H227.175V181.059H231.826C234.559 181.059 235.498 182.511 235.498 184.053C235.498 185.595 234.535 187.04 231.826 187.04Z" fill="white"/>
<path d="M253.693 179.084H246.505V194.913H248.953V189.014H253.661C258.165 189.014 259.756 186.403 259.756 184.053C259.756 181.703 258.197 179.084 253.693 179.084ZM253.604 187.04H248.953V181.059H253.604C256.337 181.059 257.284 182.511 257.284 184.053C257.284 185.595 256.313 187.04 253.604 187.04Z" fill="white"/>
<path d="M275.822 178.709C271.171 178.709 267.287 182.079 267.287 186.901C267.287 192.009 271.114 195.265 275.822 195.265C280.53 195.265 284.324 192.009 284.324 186.901C284.324 182.079 280.473 178.709 275.822 178.709ZM275.822 193.233C272.436 193.233 269.76 190.728 269.76 186.901C269.76 183.295 272.469 180.741 275.822 180.741C279.176 180.741 281.885 183.295 281.885 186.901C281.885 190.728 279.176 193.233 275.822 193.233Z" fill="white"/>
<path d="M304.454 179.084H306.959L312.964 186.982L318.994 179.084H321.442V194.913H319.059V182.364L312.932 190.352L306.812 182.429V194.913H304.454V179.084Z" fill="white"/>
<path d="M330.621 179.084H342.714V181.091H333.061V185.938H341.718V187.798H333.061V192.906H342.836V194.913H330.621V179.084Z" fill="white"/>
<path d="M356.552 179.084H351.338V194.913H356.552C362.786 194.913 365.789 191.862 365.789 186.811C365.789 182.021 362.582 179.084 356.552 179.084ZM356.634 192.939H353.778V181.059H356.634C361.081 181.059 363.349 183.213 363.349 186.778C363.349 190.646 361.228 192.939 356.634 192.939Z" fill="white"/>
<path d="M376.559 179.084H374.12V194.913H376.559V179.084Z" fill="white"/>
<path d="M393.425 178.709C388.774 178.709 384.89 182.079 384.89 186.901C384.89 192.009 388.717 195.265 393.425 195.265C398.133 195.265 401.927 192.009 401.927 186.901C401.927 182.079 398.076 178.709 393.425 178.709ZM393.425 193.233C390.039 193.233 387.363 190.728 387.363 186.901C387.363 183.295 390.072 180.741 393.425 180.741C396.779 180.741 399.488 183.295 399.488 186.901C399.488 190.728 396.779 193.233 393.425 193.233Z" fill="white"/>
<path d="M420.564 186.721C422.147 186.175 423.093 184.869 423.093 183.237C423.093 180.887 421.323 179.084 417.324 179.084H410.291V194.913H417.789C421.388 194.913 423.828 193.314 423.828 190.409C423.828 188.549 422.62 187.244 420.564 186.721ZM412.731 180.977H417.267C419.65 180.977 420.711 181.956 420.711 183.474C420.711 184.991 419.65 186.028 417.267 186.028H412.731V180.977ZM417.789 193.029H412.731V187.741H417.789C419.911 187.741 421.355 188.525 421.355 190.328C421.355 192.131 419.911 193.029 417.789 193.029Z" fill="white"/>
<path d="M439.812 179.084H437.038L430.306 194.913H432.925L434.508 191.021H442.341L443.924 194.913H446.552L439.812 179.084ZM435.275 189.161L438.392 181.524H438.458L441.574 189.161H435.275Z" fill="white"/>
<path d="M454.165 179.084H456.555L465.702 191.282V179.084H468.06V194.913H465.678L456.523 182.715V194.913H454.165V179.084Z" fill="white"/>
<path d="M485.04 178.709C487.129 178.709 489.193 179.321 490.866 180.537L489.601 182.193C488.247 181.238 486.713 180.741 485.097 180.741C481.417 180.741 478.864 183.18 478.864 186.811C478.864 190.646 481.336 193.257 485.097 193.257C486.95 193.257 488.573 192.678 489.838 191.511L491.282 193.021C489.667 194.473 487.513 195.256 485.04 195.256C479.802 195.256 476.416 191.74 476.416 186.803C476.416 181.867 479.892 178.701 485.04 178.701V178.709Z" fill="white"/>
<path d="M507.291 179.084H504.525L497.785 194.913H500.405L501.996 191.021H509.821L511.412 194.913H514.031L507.291 179.084ZM502.763 189.161L505.88 181.524H505.937L509.054 189.161H502.763Z" fill="white"/>
<path d="M198.258 154.345L193.117 146.83C192.791 146.259 192.056 146.096 191.485 146.422C189.201 147.809 186.745 150.347 180.38 150.347C171.242 150.347 164.135 142.505 164.135 133.203C164.135 123.902 171.568 116.224 180.38 116.224C186.337 116.224 190.18 119.324 191.404 120.222C191.975 120.63 192.709 120.466 193.117 119.895L198.176 112.144C198.503 111.573 198.339 110.83 197.85 110.504C193.444 107.566 188.63 104.71 180.38 104.71C164.869 104.71 151.569 117.366 151.569 133.203C151.569 149.939 164.461 161.852 180.38 161.852C189.201 161.852 195.32 158.017 197.85 155.977C198.339 155.569 198.584 154.916 198.258 154.345Z" fill="white"/>
<path d="M230.333 104.629C214.503 104.629 201.032 116.387 201.032 133.285C201.032 150.183 214.503 161.77 230.333 161.77C246.162 161.77 259.56 150.183 259.56 133.285C259.56 116.387 246.089 104.629 230.333 104.629ZM230.333 150.265C220.949 150.265 213.598 142.505 213.598 133.285C213.598 124.065 221.031 116.142 230.333 116.142C239.635 116.142 247.068 123.975 247.068 133.285C247.068 142.595 239.643 150.265 230.333 150.265Z" fill="white"/>
<path d="M321.189 105.445H311.063C310.41 105.445 310.165 106.098 309.839 106.669L294.491 132.796L279.143 106.669C278.817 106.098 278.572 105.445 277.919 105.445H267.801C267.148 105.445 266.577 106.016 266.577 106.669V159.812C266.577 160.464 267.148 161.036 267.801 161.036H277.103C277.756 161.036 278.327 160.464 278.327 159.812V127.573L289.432 146.585C289.677 147.075 290.085 147.809 290.574 147.809H298.489C298.979 147.809 299.305 147.075 299.55 146.585L310.655 127.573V159.812C310.655 160.464 311.226 161.036 311.879 161.036H321.189C321.842 161.036 322.413 160.464 322.413 159.812V106.669C322.413 106.016 321.842 105.445 321.189 105.445Z" fill="white"/>
<path d="M359.955 105.445H335.55C334.897 105.445 334.326 106.016 334.326 106.669V159.812C334.326 160.464 334.897 161.036 335.55 161.036H345.26C345.912 161.036 346.483 160.546 346.483 159.812V144.464H359.955C370.407 144.464 378.975 136.386 378.975 124.954C378.975 113.523 370.407 105.445 359.955 105.445ZM357.262 133.775H346.483V116.142H357.262C362.158 116.142 366.564 118.59 366.564 124.954C366.564 131.319 362.158 133.775 357.262 133.775Z" fill="white"/>
<path d="M427.132 159.649L407.949 106.506C407.786 105.935 407.46 105.2 406.725 105.2H396.771C396.028 105.2 395.783 105.935 395.538 106.506L376.192 159.404C375.874 160.301 376.355 161.036 377.171 161.036H387.624C388.358 161.036 388.684 160.383 388.929 159.73L392.111 149.857H411.131L414.314 159.73C414.477 160.383 414.803 161.036 415.537 161.036H426.235C426.969 161.036 427.377 160.301 427.132 159.649ZM395.538 139.405L401.666 120.711L407.704 139.405H395.538Z" fill="white"/>
<path d="M459.289 128.789C451.537 126.015 442.635 124.546 442.798 120.058C442.798 119.161 442.391 115.816 451.129 115.816C456.188 115.816 460.431 118.427 461.655 119.243C462.226 119.569 462.969 119.406 463.377 118.835L468.273 111.409C468.68 110.83 468.517 110.022 467.946 109.696C464.438 107.648 458.963 104.792 451.293 104.792C437.658 104.792 430.151 111.328 430.151 120.058C430.151 130.503 436.842 134.101 445.336 137.202C450.558 139.16 458.636 139.894 458.636 144.872C458.636 146.259 458.065 150.836 450.232 150.836C443.459 150.836 440.187 148.054 438.066 146.503C437.576 146.095 436.842 146.177 436.434 146.748L430.886 153.855C430.478 154.345 430.559 155.079 431.13 155.487C435.373 158.588 440.84 161.77 450.313 161.77C462.969 161.77 471.536 154.753 471.536 144.872C471.536 136.141 466.885 131.49 459.289 128.789Z" fill="white"/>
<path d="M503.774 128.789C496.023 126.015 487.121 124.546 487.284 120.058C487.284 119.161 486.876 115.816 495.615 115.816C500.674 115.816 504.917 118.427 506.141 119.243C506.712 119.569 507.446 119.406 507.854 118.835L512.758 111.409C513.166 110.83 513.003 110.022 512.432 109.696C508.923 107.648 503.448 104.792 495.778 104.792C482.144 104.792 474.637 111.328 474.637 120.058C474.637 130.503 481.328 134.101 489.822 137.202C495.044 139.16 503.122 139.894 503.122 144.872C503.122 146.259 502.551 150.836 494.717 150.836C487.937 150.836 484.673 148.054 482.552 146.503C482.062 146.095 481.328 146.177 480.92 146.748L475.371 153.855C474.963 154.345 475.045 155.079 475.616 155.487C479.859 158.588 485.326 161.77 494.799 161.77C507.446 161.77 516.022 154.753 516.022 144.872C516.022 136.141 511.371 131.49 503.774 128.789Z" fill="white"/>
<path d="M99.0135 124.048C99.0135 127.548 101.168 130.518 104.211 131.718L106.431 127.116V115.823C102.269 116.215 99.0135 119.732 99.0135 124.048ZM99.0135 124.048C99.0135 127.548 101.168 130.518 104.211 131.718L106.431 127.116V115.823C102.269 116.215 99.0135 119.732 99.0135 124.048ZM108.062 130.584V132.24C108.315 132.216 108.56 132.175 108.805 132.126L108.062 130.584ZM108.062 130.584V132.24C108.315 132.216 108.56 132.175 108.805 132.126L108.062 130.584ZM105.819 132.167C106.014 132.207 106.218 132.232 106.431 132.248V130.902L105.819 132.167ZM99.0135 124.048C99.0135 127.548 101.168 130.518 104.211 131.718L106.431 127.116V115.823C102.269 116.215 99.0135 119.732 99.0135 124.048ZM99.0135 124.048C99.0135 127.548 101.168 130.518 104.211 131.718L106.431 127.116V115.823C102.269 116.215 99.0135 119.732 99.0135 124.048ZM105.819 132.167C106.014 132.207 106.218 132.232 106.431 132.248V130.902L105.819 132.167ZM108.062 130.584V132.24C108.315 132.216 108.56 132.175 108.805 132.126L108.062 130.584ZM108.062 130.584V132.24C108.315 132.216 108.56 132.175 108.805 132.126L108.062 130.584ZM105.819 132.167C106.014 132.207 106.218 132.232 106.431 132.248V130.902L105.819 132.167ZM99.0135 124.048C99.0135 127.548 101.168 130.518 104.211 131.718L106.431 127.116V115.823C102.269 116.215 99.0135 119.732 99.0135 124.048ZM99.0135 124.048C99.0135 127.548 101.168 130.518 104.211 131.718L106.431 127.116V115.823C102.269 116.215 99.0135 119.732 99.0135 124.048ZM105.819 132.167C106.014 132.207 106.218 132.232 106.431 132.248V130.902L105.819 132.167ZM93.7506 165.972H106.431V157.339C100.792 157.567 95.97 161.043 93.7506 165.972ZM108.062 130.584V132.24C108.315 132.216 108.56 132.175 108.805 132.126L108.062 130.584ZM108.062 157.363V165.972H120.285C118.131 161.182 113.505 157.755 108.062 157.363ZM120.906 167.603H93.1305C92.6899 169.007 92.4533 170.5 92.4533 172.05C92.4533 180.185 98.9809 186.762 107.018 186.778C115.055 186.762 121.583 180.185 121.583 172.05C121.583 170.5 121.346 169.007 120.906 167.603ZM107.173 174.253C106.169 174.253 105.345 173.446 105.345 172.434C105.345 171.422 106.169 170.606 107.173 170.606C108.177 170.606 108.993 171.422 108.993 172.434C108.993 173.446 108.177 174.253 107.173 174.253ZM120.906 167.603H93.1305C92.6899 169.007 92.4533 170.5 92.4533 172.05C92.4533 180.185 98.9809 186.762 107.018 186.778C115.055 186.762 121.583 180.185 121.583 172.05C121.583 170.5 121.346 169.007 120.906 167.603ZM107.173 174.253C106.169 174.253 105.345 173.446 105.345 172.434C105.345 171.422 106.169 170.606 107.173 170.606C108.177 170.606 108.993 171.422 108.993 172.434C108.993 173.446 108.177 174.253 107.173 174.253ZM108.062 157.363V165.972H120.285C118.131 161.182 113.505 157.755 108.062 157.363ZM108.062 130.584V132.24C108.315 132.216 108.56 132.175 108.805 132.126L108.062 130.584ZM93.7506 165.972H106.431V157.339C100.792 157.567 95.97 161.043 93.7506 165.972ZM105.819 132.167C106.014 132.207 106.218 132.232 106.431 132.248V130.902L105.819 132.167ZM99.0135 124.048C99.0135 127.548 101.168 130.518 104.211 131.718L106.431 127.116V115.823C102.269 116.215 99.0135 119.732 99.0135 124.048ZM99.0135 124.048C99.0135 127.548 101.168 130.518 104.211 131.718L106.431 127.116V115.823C102.269 116.215 99.0135 119.732 99.0135 124.048ZM105.819 132.167C106.014 132.207 106.218 132.232 106.431 132.248V130.902L105.819 132.167ZM93.7506 165.972H106.431V157.339C100.792 157.567 95.97 161.043 93.7506 165.972ZM108.062 130.584V132.24C108.315 132.216 108.56 132.175 108.805 132.126L108.062 130.584ZM108.062 157.363V165.972H120.285C118.131 161.182 113.505 157.755 108.062 157.363ZM120.906 167.603H93.1305C92.6899 169.007 92.4533 170.5 92.4533 172.05C92.4533 180.185 98.9809 186.762 107.018 186.778C115.055 186.762 121.583 180.185 121.583 172.05C121.583 170.5 121.346 169.007 120.906 167.603ZM107.173 174.253C106.169 174.253 105.345 173.446 105.345 172.434C105.345 171.422 106.169 170.606 107.173 170.606C108.177 170.606 108.993 171.422 108.993 172.434C108.993 173.446 108.177 174.253 107.173 174.253ZM120.906 167.603H93.1305C92.6899 169.007 92.4533 170.5 92.4533 172.05C92.4533 180.185 98.9809 186.762 107.018 186.778C115.055 186.762 121.583 180.185 121.583 172.05C121.583 170.5 121.346 169.007 120.906 167.603ZM107.173 174.253C106.169 174.253 105.345 173.446 105.345 172.434C105.345 171.422 106.169 170.606 107.173 170.606C108.177 170.606 108.993 171.422 108.993 172.434C108.993 173.446 108.177 174.253 107.173 174.253ZM108.062 157.363V165.972H120.285C118.131 161.182 113.505 157.755 108.062 157.363ZM108.062 130.584V132.24C108.315 132.216 108.56 132.175 108.805 132.126L108.062 130.584ZM106.431 157.339C100.792 157.567 95.97 161.043 93.7506 165.972H106.431V157.339ZM106.431 130.902L105.819 132.167C106.014 132.207 106.218 132.232 106.431 132.248V130.902ZM104.211 131.718L106.431 127.116V115.823C102.269 116.215 99.0135 119.732 99.0135 124.048C99.0135 127.548 101.168 130.518 104.211 131.718ZM84 104V194.913H130.036V104H84ZM107.018 188.418C98.0589 188.41 90.8214 181.075 90.8132 172.05C90.8132 163.214 97.7406 156.017 106.431 155.699V133.896C105.974 133.864 105.525 133.799 105.084 133.701L93.5874 157.551L92.1106 156.833L103.493 133.211C99.9029 131.742 97.3898 128.193 97.3816 124.048C97.3898 118.834 101.355 114.567 106.431 114.191V113.416L104.538 111.964L105.533 110.674L107.059 111.833L108.576 110.674L109.58 111.964L108.062 113.131V114.199C110.192 114.395 112.142 115.285 113.668 116.639L112.575 117.847C111.334 116.753 109.776 116.019 108.062 115.831V126.83L110.372 131.628C111.514 131.13 112.526 130.38 113.333 129.441H113.342L114.574 130.51C113.627 131.612 112.436 132.509 111.09 133.105L122.301 156.376L120.84 157.086L109.531 133.635C109.05 133.758 108.568 133.839 108.062 133.88V155.723C116.532 156.27 123.223 163.369 123.223 172.05C123.223 180.732 115.977 188.41 107.018 188.418ZM92.4533 172.05C92.4533 180.185 98.9809 186.762 107.018 186.778C115.055 186.762 121.583 180.185 121.583 172.05C121.583 170.5 121.346 169.007 120.906 167.603H93.1305C92.6899 169.007 92.4533 170.5 92.4533 172.05ZM107.173 170.606C108.177 170.606 108.993 171.422 108.993 172.434C108.993 173.446 108.177 174.253 107.173 174.253C106.169 174.253 105.345 173.446 105.345 172.434C105.345 171.422 106.169 170.606 107.173 170.606ZM108.062 157.363V165.972H120.285C118.131 161.182 113.505 157.755 108.062 157.363ZM108.062 130.584V132.24C108.315 132.216 108.56 132.175 108.805 132.126L108.062 130.584ZM106.431 157.339C100.792 157.567 95.97 161.043 93.7506 165.972H106.431V157.339ZM106.431 130.902L105.819 132.167C106.014 132.207 106.218 132.232 106.431 132.248V130.902ZM106.431 115.823C102.269 116.215 99.0135 119.732 99.0135 124.048C99.0135 127.548 101.168 130.518 104.211 131.718L106.431 127.116V115.823ZM99.0135 124.048C99.0135 127.548 101.168 130.518 104.211 131.718L106.431 127.116V115.823C102.269 116.215 99.0135 119.732 99.0135 124.048ZM105.819 132.167C106.014 132.207 106.218 132.232 106.431 132.248V130.902L105.819 132.167ZM93.7506 165.972H106.431V157.339C100.792 157.567 95.97 161.043 93.7506 165.972ZM108.062 130.584V132.24C108.315 132.216 108.56 132.175 108.805 132.126L108.062 130.584ZM108.062 157.363V165.972H120.285C118.131 161.182 113.505 157.755 108.062 157.363ZM120.906 167.603H93.1305C92.6899 169.007 92.4533 170.5 92.4533 172.05C92.4533 180.185 98.9809 186.762 107.018 186.778C115.055 186.762 121.583 180.185 121.583 172.05C121.583 170.5 121.346 169.007 120.906 167.603ZM107.173 174.253C106.169 174.253 105.345 173.446 105.345 172.434C105.345 171.422 106.169 170.606 107.173 170.606C108.177 170.606 108.993 171.422 108.993 172.434C108.993 173.446 108.177 174.253 107.173 174.253ZM120.906 167.603H93.1305C92.6899 169.007 92.4533 170.5 92.4533 172.05C92.4533 180.185 98.9809 186.762 107.018 186.778C115.055 186.762 121.583 180.185 121.583 172.05C121.583 170.5 121.346 169.007 120.906 167.603ZM107.173 174.253C106.169 174.253 105.345 173.446 105.345 172.434C105.345 171.422 106.169 170.606 107.173 170.606C108.177 170.606 108.993 171.422 108.993 172.434C108.993 173.446 108.177 174.253 107.173 174.253ZM108.062 157.363V165.972H120.285C118.131 161.182 113.505 157.755 108.062 157.363ZM108.062 130.584V132.24C108.315 132.216 108.56 132.175 108.805 132.126L108.062 130.584ZM93.7506 165.972H106.431V157.339C100.792 157.567 95.97 161.043 93.7506 165.972ZM105.819 132.167C106.014 132.207 106.218 132.232 106.431 132.248V130.902L105.819 132.167ZM99.0135 124.048C99.0135 127.548 101.168 130.518 104.211 131.718L106.431 127.116V115.823C102.269 116.215 99.0135 119.732 99.0135 124.048ZM99.0135 124.048C99.0135 127.548 101.168 130.518 104.211 131.718L106.431 127.116V115.823C102.269 116.215 99.0135 119.732 99.0135 124.048ZM105.819 132.167C106.014 132.207 106.218 132.232 106.431 132.248V130.902L105.819 132.167ZM93.7506 165.972H106.431V157.339C100.792 157.567 95.97 161.043 93.7506 165.972ZM108.062 130.584V132.24C108.315 132.216 108.56 132.175 108.805 132.126L108.062 130.584ZM108.062 157.363V165.972H120.285C118.131 161.182 113.505 157.755 108.062 157.363ZM120.906 167.603H93.1305C92.6899 169.007 92.4533 170.5 92.4533 172.05C92.4533 180.185 98.9809 186.762 107.018 186.778C115.055 186.762 121.583 180.185 121.583 172.05C121.583 170.5 121.346 169.007 120.906 167.603ZM107.173 174.253C106.169 174.253 105.345 173.446 105.345 172.434C105.345 171.422 106.169 170.606 107.173 170.606C108.177 170.606 108.993 171.422 108.993 172.434C108.993 173.446 108.177 174.253 107.173 174.253ZM108.062 130.584V132.24C108.315 132.216 108.56 132.175 108.805 132.126L108.062 130.584ZM105.819 132.167C106.014 132.207 106.218 132.232 106.431 132.248V130.902L105.819 132.167ZM99.0135 124.048C99.0135 127.548 101.168 130.518 104.211 131.718L106.431 127.116V115.823C102.269 116.215 99.0135 119.732 99.0135 124.048ZM99.0135 124.048C99.0135 127.548 101.168 130.518 104.211 131.718L106.431 127.116V115.823C102.269 116.215 99.0135 119.732 99.0135 124.048ZM105.819 132.167C106.014 132.207 106.218 132.232 106.431 132.248V130.902L105.819 132.167ZM108.062 130.584V132.24C108.315 132.216 108.56 132.175 108.805 132.126L108.062 130.584ZM108.062 130.584V132.24C108.315 132.216 108.56 132.175 108.805 132.126L108.062 130.584ZM99.0135 124.048C99.0135 127.548 101.168 130.518 104.211 131.718L106.431 127.116V115.823C102.269 116.215 99.0135 119.732 99.0135 124.048ZM99.0135 124.048C99.0135 127.548 101.168 130.518 104.211 131.718L106.431 127.116V115.823C102.269 116.215 99.0135 119.732 99.0135 124.048ZM105.819 132.167C106.014 132.207 106.218 132.232 106.431 132.248V130.902L105.819 132.167ZM108.062 130.584V132.24C108.315 132.216 108.56 132.175 108.805 132.126L108.062 130.584ZM99.0135 124.048C99.0135 127.548 101.168 130.518 104.211 131.718L106.431 127.116V115.823C102.269 116.215 99.0135 119.732 99.0135 124.048ZM99.0135 124.048C99.0135 127.548 101.168 130.518 104.211 131.718L106.431 127.116V115.823C102.269 116.215 99.0135 119.732 99.0135 124.048Z" fill="white"/>
</g>
<defs>
<clipPath id="clip0_147_104">
<rect width="432.022" height="91.2892" fill="white" transform="translate(84 104)"/>
</clipPath>
</defs>
</svg>
