<svg width="600" height="300" viewBox="0 0 600 300" fill="none" xmlns="http://www.w3.org/2000/svg">
<path fill-rule="evenodd" clip-rule="evenodd" d="M136.588 158.52H157.98C163.451 158.52 167.876 154.216 167.876 149.055C167.876 143.893 163.451 139.59 157.98 139.59H136.588C136.094 139.59 135.728 139.956 135.728 140.389V157.783C135.728 158.213 136.094 158.52 136.588 158.52Z" fill="white"/>
<path fill-rule="evenodd" clip-rule="evenodd" d="M60 176.838H463.968V122.314H60V176.838ZM413.87 139.403C413.87 135.411 417.254 132.214 421.435 132.214H447.063C453.03 132.214 457.889 136.825 457.889 142.542C457.889 146.659 455.301 150.223 451.678 151.882L457.329 159.692C458.679 161.533 458.312 163.993 456.346 165.222C454.439 166.515 451.86 166.083 450.509 164.237L442.209 152.867H431.82C427.578 152.867 424.137 149.61 424.137 145.614H446.018C447.803 145.614 449.216 144.262 449.216 142.542C449.216 140.821 447.803 139.403 446.018 139.403H422.17V161.963C422.17 164.176 420.39 165.958 418.051 165.958C415.712 165.958 413.87 164.176 413.87 161.902V139.403ZM352.772 160.245L371.028 135.473C372.441 133.564 374.717 132.153 377.3 132.153C379.883 132.153 382.155 133.566 383.566 135.473L401.884 160.307C402.257 160.86 402.503 161.538 402.503 162.275C402.503 164.301 400.78 165.96 398.693 165.96C397.462 165.986 396.294 165.413 395.557 164.426L391.317 158.707H363.286L359.044 164.364C358.333 165.389 357.156 165.988 355.908 165.96C353.818 165.96 352.094 164.301 352.094 162.275C352.094 161.533 352.399 160.796 352.772 160.245ZM304.399 139.403C304.399 135.411 307.781 132.153 312.021 132.153H338.02C344.044 132.153 348.839 136.825 348.839 142.542C348.839 148.258 344.044 152.867 338.081 152.867H322.776C318.537 152.867 315.095 149.608 315.095 145.614H338.081C339.865 145.614 341.279 144.262 341.279 142.542C341.279 140.821 339.865 139.403 338.081 139.403H312.76V161.963C312.76 164.176 310.917 165.958 308.58 165.958C306.243 165.958 304.399 164.176 304.399 161.963V139.403ZM279.686 152.865H257.986C251.965 152.865 247.108 148.254 247.108 142.537C247.108 136.82 251.905 132.148 257.927 132.148H281.593C285.772 132.148 289.154 135.407 289.154 139.401H257.927C256.145 139.401 254.668 140.819 254.668 142.537C254.668 144.256 256.145 145.612 257.986 145.612H279.686C285.587 145.612 290.321 150.161 290.321 155.755C290.321 161.349 285.587 165.958 279.686 165.958H254.668C250.428 165.958 247.047 162.701 247.047 158.645H279.686C281.348 158.645 282.702 157.353 282.702 155.755C282.702 154.157 281.348 152.865 279.686 152.865ZM189.082 140.389C189.082 135.842 192.955 132.153 197.748 132.153H224.671C229.157 132.153 232.846 135.411 233.276 139.59H197.748C197.256 139.59 196.886 139.956 196.886 140.389V145.307H229.405C231.557 145.307 233.339 147.029 233.339 149.055C233.339 151.081 231.557 152.806 229.405 152.806H196.888V157.783C196.888 158.213 197.259 158.52 197.75 158.52H233.278C232.848 162.701 229.161 165.958 224.675 165.958H197.687C192.953 165.958 189.082 162.334 189.082 157.783V140.389ZM127.919 140.389C127.919 135.842 131.791 132.153 136.588 132.153H157.98C167.755 132.153 175.743 139.715 175.743 149.055C175.743 158.395 167.751 165.958 157.98 165.958H136.588C131.791 165.958 127.919 162.334 127.919 157.783V140.389Z" fill="white"/>
<path fill-rule="evenodd" clip-rule="evenodd" d="M377.972 140.448C377.79 140.264 377.482 139.898 377.3 139.898C377.118 139.898 376.806 140.264 376.684 140.512L368.384 151.761H386.212L377.972 140.448Z" fill="white"/>
<path fill-rule="evenodd" clip-rule="evenodd" d="M197.687 163.497H224.671C226.606 163.497 228.428 162.586 229.589 161.039H197.687C195.841 161.042 194.307 159.567 194.307 157.783V150.347H229.405C230.116 150.343 230.693 149.768 230.697 149.055C230.686 148.366 230.118 147.815 229.429 147.826H194.307V140.389C194.307 138.607 195.843 137.13 197.748 137.13H229.589C228.544 135.593 226.701 134.608 224.671 134.608H197.748C194.366 134.608 191.663 137.189 191.663 140.386V157.78C191.663 160.916 194.366 163.497 197.687 163.497Z" fill="white"/>
<path fill-rule="evenodd" clip-rule="evenodd" d="M136.588 163.502H157.98C166.34 163.502 173.099 156.986 173.099 149.055C173.099 141.124 166.337 134.61 157.98 134.61H136.588C133.206 134.61 130.502 137.193 130.502 140.389V157.783C130.502 160.919 133.206 163.502 136.588 163.502ZM133.147 140.389C133.147 138.607 134.683 137.13 136.588 137.13H157.98C164.863 137.13 170.459 142.478 170.459 149.053C170.459 155.628 164.865 160.976 157.98 160.976H136.588C134.683 160.978 133.147 159.567 133.147 157.783V140.389Z" fill="white"/>
<path fill-rule="evenodd" clip-rule="evenodd" d="M509.088 121.085C492.063 121.085 478.292 134.242 478.292 150.407C478.292 155.689 479.586 160.732 482.288 164.915C485.152 169.357 489.253 172.859 494.088 174.995C498.813 177.156 503.953 178.267 509.147 178.254C514.495 178.254 519.598 177.086 524.147 175.061C528.975 172.886 533.072 169.364 535.947 164.92C538.653 160.739 539.943 155.698 539.943 150.411C539.946 134.242 526.113 121.085 509.088 121.085ZM528.878 164.364C526.3 167.683 522.119 169.895 517.388 169.895C514.559 169.895 512.162 167.683 512.162 164.977V160.673H528.573C521.568 153.418 511.361 137.621 509.088 127.972C506.876 137.624 496.676 153.418 489.664 160.673H506.075V164.977C506.075 167.68 503.678 169.895 500.85 169.895C496.118 169.895 491.937 167.683 489.359 164.364C486.346 160.427 484.377 155.634 484.377 150.411C484.377 137.501 495.563 127.052 509.088 127.052C522.613 127.052 533.86 137.501 533.86 150.411C533.858 155.632 531.887 160.427 528.876 164.364H528.878Z" fill="white"/>
</svg>
