<svg width="600" height="300" viewBox="0 0 600 300" fill="none" xmlns="http://www.w3.org/2000/svg">
<path d="M423.51 131.753H414.399V185.392H423.51V131.753Z" fill="white"/>
<path fill-rule="evenodd" clip-rule="evenodd" d="M450.87 114.528L441.731 116.977V131.753H431.738V139.269H441.731V169.306C441.731 179.27 444.749 186.36 456.336 186.36C459.411 186.36 461.461 186.103 463.539 185.591L464.279 177.021C462.457 177.448 461.062 177.761 458.699 177.761C453.233 177.761 450.87 175.085 450.87 168.964V139.269H464.279V131.753H450.87V114.528Z" fill="white"/>
<path fill-rule="evenodd" clip-rule="evenodd" d="M418.954 111.795C416.079 111.795 413.744 114.101 413.744 116.977C413.744 119.852 416.079 122.187 418.954 122.187C421.83 122.187 424.164 119.852 424.164 116.977C424.164 114.101 421.83 111.795 418.954 111.795Z" fill="white"/>
<path fill-rule="evenodd" clip-rule="evenodd" d="M235.034 111.795C232.159 111.795 229.824 114.101 229.824 116.977C229.824 119.852 232.159 122.187 235.034 122.187C237.91 122.187 240.244 119.852 240.244 116.977C240.244 114.101 237.91 111.795 235.034 111.795Z" fill="white"/>
<path fill-rule="evenodd" clip-rule="evenodd" d="M509.946 131.753L497.504 169.078C496.65 171.754 495.995 173.918 495.682 175.399H495.454C495.141 173.918 494.6 171.754 493.632 169.078L479.881 131.753H469.689L491.042 184.737L489.646 188.723C487.198 195.783 483.867 198.687 477.404 198.687C476.436 198.687 475.383 198.602 474.244 198.517L473.561 206.517C475.269 206.83 476.892 206.944 478.486 206.944C487.511 206.944 493.946 202.445 498.899 188.808L519.825 131.753H509.946Z" fill="white"/>
<path d="M239.59 131.753H230.479V185.392H239.59V131.753Z" fill="white"/>
<path fill-rule="evenodd" clip-rule="evenodd" d="M384.078 130.244C376.761 130.244 371.294 133.889 367.764 141.177C365.287 134.116 359.906 130.244 352.504 130.244C345.102 130.244 340.148 133.889 337.158 141.092V131.753H328.56V185.392H337.671V154.074C337.671 144.309 342.312 138.301 349.828 138.301C356.262 138.301 359.906 142.686 359.906 150.515V185.392H369.045V153.647C369.045 143.882 373.43 138.301 381.06 138.301C387.836 138.301 391.281 142.572 391.281 150.942V185.392H400.391V150.202C400.391 137.647 394.384 130.244 384.078 130.244Z" fill="white"/>
<path fill-rule="evenodd" clip-rule="evenodd" d="M309.2 111.795C306.325 111.795 303.99 114.101 303.99 116.977C303.99 119.852 306.325 122.187 309.2 122.187C312.076 122.187 314.41 119.852 314.41 116.977C314.41 114.101 312.076 111.795 309.2 111.795Z" fill="white"/>
<path fill-rule="evenodd" clip-rule="evenodd" d="M287.99 168.964V107.61H278.851V169.306C278.851 178.986 281.726 185.932 292.545 186.302L293.314 177.505C289.641 176.736 287.99 174.032 287.99 168.964Z" fill="white"/>
<path d="M313.756 131.753H304.617V185.392H313.756V131.753Z" fill="white"/>
<path fill-rule="evenodd" clip-rule="evenodd" d="M263.676 168.964V107.61H254.537V169.306C254.537 178.986 257.413 185.932 268.231 186.302L269 177.505C265.327 176.736 263.676 174.032 263.676 168.964Z" fill="white"/>
<path fill-rule="evenodd" clip-rule="evenodd" d="M203.518 150.145C203.062 147.754 202.521 145.391 201.724 143.113C200.87 140.437 199.788 137.846 198.621 135.341C197.454 132.835 196.144 130.387 194.635 128.052H194.606C193.866 126.856 193.098 125.689 192.243 124.579C191.816 124.009 191.389 123.468 190.905 122.927C190.478 122.358 190.023 121.817 189.567 121.276C187.204 118.572 184.556 116.066 181.51 113.902C178.492 111.739 175.047 109.973 171.318 108.863C170.227 108.539 169.117 108.254 167.987 108.035C165.783 105.455 163.289 103.121 160.499 101.148C159.816 100.664 159.104 100.18 158.392 99.724C157.652 99.297 156.912 98.8414 156.171 98.4429C154.662 97.6457 153.096 96.9055 151.502 96.2791H151.474C150.79 96.0513 150.116 95.8236 149.452 95.5958C148.769 95.368 148.086 95.2257 147.402 95.0264C145.267 94.457 143.103 94.2008 140.94 94.0584C140.521 94.0385 140.094 94.0214 139.658 94.0015H138.833C137.409 94.0299 135.957 94.1438 134.534 94.2577C129.637 94.7986 124.996 96.1652 120.612 97.7311C117.679 98.7845 114.832 99.9803 112.042 101.205H112.014C110.846 101.717 109.707 102.258 108.569 102.827C106.547 103.852 104.583 105.02 102.647 106.215C100.711 107.468 98.7748 108.749 96.9811 110.173C95.3868 111.397 93.8778 112.707 92.4258 114.102C91.4578 115.041 90.5183 116.009 89.6357 117.006C88.7531 118.031 87.9275 119.084 87.1018 120.166C84.2263 124.095 82.091 128.565 80.8383 133.376V133.405C80.0696 136.451 79.6426 139.64 79.6426 142.828V143.056C79.6426 144.386 79.7194 145.704 79.8703 147.014C79.9558 148.295 80.1835 149.576 80.4113 150.829L80.9807 153.334C81.18 154.16 81.4362 154.985 81.664 155.811C82.1765 157.434 82.7459 159.028 83.3153 160.594C83.3153 160.594 83.4292 160.85 83.6569 161.391C83.8847 161.932 84.2263 162.729 84.7103 163.754C85.6499 165.861 87.1303 168.936 89.5788 172.779L92.8814 170.729C93.3739 170.408 93.8778 170.095 94.3903 169.79L95.8992 168.85C94.9312 167.313 94.191 165.918 93.6501 164.637C93.1376 163.384 92.7675 162.274 92.5112 161.391C92.1981 160.509 92.1411 159.825 91.9988 159.37C91.9134 158.914 91.8564 158.686 91.8564 158.686C91.3724 156.039 91.1447 153.334 91.2016 150.629C91.2585 149.604 91.2585 148.579 91.3724 147.554C91.7425 143.939 92.3689 140.323 93.3369 136.764C93.8209 134.942 94.3903 133.12 95.1021 131.355C95.7854 129.561 96.5825 127.824 97.4366 126.116C98.4331 124.209 99.515 122.33 100.768 120.564C101.679 119.226 102.704 117.945 103.757 116.721C106.291 113.902 109.223 111.425 112.526 109.632C113.437 109.091 114.377 108.664 115.345 108.237V108.208C117.85 107.155 120.498 106.358 123.117 105.874C123.63 105.788 124.114 105.674 124.597 105.617C125.09 105.56 125.594 105.512 126.106 105.475C126.59 105.39 127.074 105.39 127.558 105.361C128.071 105.333 128.555 105.304 129.039 105.304C131.003 105.304 132.911 105.447 134.761 105.674C136.356 105.959 137.893 106.158 139.374 106.585C140.142 106.728 140.854 106.984 141.594 107.155C141.936 107.269 142.306 107.411 142.648 107.525C143.018 107.639 143.388 107.724 143.73 107.867C144.641 108.171 145.552 108.513 146.463 108.892C147.545 109.347 148.655 109.803 149.708 110.372C149.78 110.409 149.851 110.449 149.922 110.486C146.691 112.143 143.678 114.54 141.367 117.461C139.772 119.397 138.605 121.589 137.694 123.753C136.783 125.917 136.128 128.109 135.673 130.273C134.79 134.6 134.619 138.757 134.676 142.743C134.696 143.218 134.705 143.691 134.705 144.166C132.968 143.882 131.174 143.711 129.324 143.682C127.302 143.682 125.224 143.853 123.117 144.309C121.01 144.793 118.846 145.59 116.882 146.757C114.889 147.953 113.095 149.547 111.643 151.341C110.191 153.135 109.11 155.128 108.284 157.092V157.121C107.601 158.772 107.06 160.48 106.69 162.217C106.376 163.953 106.149 165.719 106.12 167.484C106.092 169.078 106.149 170.673 106.376 172.238C106.718 174.715 107.316 177.135 108.085 179.441C107.723 179.271 107.324 179.08 106.889 178.872C105.494 178.132 103.7 177.107 101.793 175.484C100.853 174.658 99.8566 173.747 98.8602 172.637C97.8922 171.527 96.8957 170.245 95.9277 168.85L94.4188 169.79C93.9063 170.095 93.4024 170.408 92.9098 170.729L89.6073 172.779C91.828 176.167 94.0771 178.957 96.1839 181.235C96.7533 181.776 97.2658 182.317 97.8068 182.801C98.2993 183.313 98.7947 183.789 99.2872 184.224C100.284 185.107 101.223 185.847 102.077 186.474C103.786 187.755 105.181 188.609 106.12 189.15L107.572 189.919C110.106 191.2 112.839 192.196 115.715 192.794C116.646 193.856 117.602 194.881 118.59 195.869C120.555 197.805 122.747 199.456 125.025 200.965C127.359 202.446 129.836 203.727 132.427 204.695H132.455C133.253 204.979 134.05 205.264 134.875 205.492C135.701 205.72 136.498 205.947 137.324 206.147C138.178 206.318 139.004 206.46 139.829 206.574C140.683 206.659 141.509 206.773 142.363 206.83C143.53 206.915 144.726 206.915 145.893 206.887C147.061 206.859 148.228 206.745 149.367 206.631C155.488 205.862 161.068 203.869 166.364 201.791C168.186 201.051 169.979 200.29 171.745 199.513H171.773C174.962 198.09 178.008 196.381 180.969 194.502C183.958 192.623 186.806 190.516 189.482 188.125C191.019 186.787 192.443 185.335 193.838 183.797C195.184 182.26 196.437 180.637 197.596 178.929C199.874 175.456 201.667 171.612 202.777 167.541V167.512C203.489 164.722 204.002 161.847 204.116 158.914C204.144 157.462 204.201 155.982 204.03 154.53C203.945 153.049 203.774 151.597 203.518 150.145ZM152.214 125.831C153.353 124.209 154.833 122.927 156.741 121.931L156.769 121.903C157.908 121.276 159.161 120.764 160.442 120.394C160.977 120.243 161.521 120.109 162.068 119.992C164.038 122.261 165.726 124.807 166.905 127.597C167.73 129.533 168.3 131.554 168.527 133.632C168.698 135.056 168.698 136.536 168.527 137.96C168.442 138.956 168.129 139.896 167.787 140.835C166.791 143.17 165.396 145.163 163.602 146.473C161.268 148.238 158.136 148.921 154.748 148.836C152.738 148.787 150.668 148.46 148.581 147.962C148.447 146.142 148.362 144.349 148.342 142.601C148.256 135.967 149.338 129.618 152.214 125.831ZM130.405 176.737C129.494 177.619 128.441 178.416 127.188 179.071C126.021 179.698 124.797 180.21 123.487 180.58C123.012 180.731 122.519 180.865 122.007 180.979C121.551 180.429 121.104 179.868 120.669 179.299C118.704 176.68 117.138 173.747 116.256 170.616C115.942 169.534 115.8 168.452 115.658 167.341C115.43 164.978 115.515 162.501 116.426 160.281V160.252C117.565 157.548 119.302 155.412 121.523 154.131C122.633 153.505 123.886 153.049 125.195 152.736C126.533 152.48 127.957 152.366 129.437 152.366C131.373 152.423 133.366 152.708 135.359 153.135C135.493 154.92 135.567 156.665 135.587 158.373C135.616 160.594 135.53 162.786 135.274 164.865C134.875 168.196 134.05 171.242 132.74 173.605C132.057 174.772 131.345 175.826 130.405 176.737ZM192.699 150.373C192.642 152.708 192.386 155.042 192.044 157.348C191.674 159.654 191.19 161.961 190.592 164.21V164.238C190.194 165.813 189.701 167.361 189.112 168.879C188.542 170.416 187.916 171.954 187.204 173.406C185.809 176.395 184.101 179.271 182.108 181.918C178.578 186.588 173.908 190.488 168.584 192.766C167.767 193.087 166.953 193.401 166.136 193.705C165.31 193.961 164.513 194.246 163.688 194.474C160.584 195.328 157.424 195.698 154.349 195.698C152.584 195.698 150.847 195.584 149.168 195.356C147.431 195.072 145.723 194.787 144.1 194.331C143.53 194.218 142.961 194.018 142.392 193.876C141.822 193.705 141.281 193.506 140.712 193.335C140.171 193.164 139.63 192.936 139.089 192.737C138.54 192.529 137.999 192.319 137.466 192.111H137.438C136.27 191.627 135.132 191.114 134.021 190.516C135.986 189.492 137.865 188.239 139.601 186.73C141.623 184.908 143.416 182.772 144.698 180.466C147.317 175.854 148.456 171.014 148.94 166.459C149.224 163.64 149.281 160.907 149.253 158.231C149.242 157.69 149.224 157.155 149.205 156.619C150.995 156.927 152.837 157.129 154.748 157.177C157.025 157.206 159.417 157.035 161.837 156.409C164.257 155.782 166.705 154.672 168.784 153.078C170.378 151.854 171.773 150.402 172.912 148.836C174.051 147.241 174.933 145.562 175.645 143.882C176.186 142.515 176.67 141.149 176.983 139.754C177.496 137.704 177.752 135.597 177.809 133.519C177.866 130.529 177.467 127.568 176.755 124.721C176.479 123.636 176.158 122.569 175.796 121.521C176.069 121.643 176.343 121.769 176.613 121.903C177.866 122.509 179.081 123.221 180.257 124.038C181.425 124.835 182.478 125.803 183.56 126.771C185.211 128.365 186.663 130.216 188.03 132.152C190.421 135.796 191.873 140.152 192.414 144.594C192.67 146.501 192.727 148.437 192.699 150.373Z" fill="white"/>
</svg>
