<svg width="600" height="300" viewBox="0 0 600 300" fill="none" xmlns="http://www.w3.org/2000/svg">
<path d="M465.256 104.991C440.4 104.991 420.23 125.132 420.23 150.226C420.23 175.32 440.4 195.586 465.256 195.586C490.111 195.586 510.405 175.186 510.405 150.226C510.424 125.132 490.235 104.991 465.256 104.991ZM465.256 177.772C450.104 177.772 437.948 165.426 437.948 150.226C437.948 135.027 450.104 122.68 465.256 122.68C480.407 122.68 492.687 135.027 492.687 150.226C492.687 165.426 480.407 177.772 465.256 177.772Z" fill="#FEFEFE"/>
<path d="M408.466 112.776L392.923 105.764C392.799 105.764 392.541 105.764 392.541 106.021L363.698 171.532C362.925 173.602 361.226 175.158 359.156 176.074C354.748 178.03 349.586 176.074 347.516 171.532L318.787 106.031C318.787 105.773 318.529 105.773 318.386 105.773L302.738 112.786C302.595 112.786 302.48 113.044 302.595 113.187L331.314 178.698C337.268 192.208 352.926 198.315 366.379 192.342C372.352 189.746 377.256 184.814 379.975 178.698L408.714 113.187C408.714 113.053 408.714 112.786 408.456 112.786L408.466 112.776Z" fill="#FEFEFE"/>
<path d="M284.629 105.764H213.851C204.262 105.764 196.505 113.549 196.505 123.177C196.505 123.434 196.648 123.577 196.763 123.577H284.629C284.772 123.577 284.886 123.444 284.886 123.177V106.164C284.886 105.907 284.762 105.764 284.629 105.764Z" fill="#FEFEFE"/>
<path d="M284.629 141.381H196.763C196.629 141.381 196.505 141.505 196.505 141.639V158.794C196.505 158.918 196.648 159.052 196.763 159.052H284.629C284.772 159.052 284.886 158.928 284.886 158.794V141.639C284.886 141.515 284.762 141.381 284.629 141.381Z" fill="#FEFEFE"/>
<path d="M284.629 176.856H196.763C196.629 176.856 196.505 176.98 196.505 177.114C196.505 186.874 204.281 194.66 213.851 194.66H284.629C284.772 194.66 284.886 194.527 284.886 194.259V177.104C284.886 176.98 284.762 176.846 284.629 176.846V176.856Z" fill="#FEFEFE"/>
<path d="M178.787 132.403C178.787 118.167 167.614 106.517 153.617 105.802C153.168 105.783 152.71 105.764 152.252 105.764H90.6629C90.5389 105.764 90.4053 105.897 90.4053 106.164V123.177C90.4053 123.434 90.5293 123.577 90.6629 123.577H152.252C157.176 123.577 161.04 127.48 161.04 132.422C161.04 137.364 157.156 141.391 152.252 141.391H90.6629C90.5389 141.391 90.4053 141.524 90.4053 141.649V158.804C90.4053 158.947 90.5293 159.061 90.6629 159.061H123.533C128.313 159.061 132.721 161.017 136.089 164.261L166.249 194.536C166.373 194.67 166.507 194.67 166.631 194.536L178.672 182.447C178.796 182.314 178.796 182.047 178.672 181.932L157.328 160.483L157.309 160.502C156.727 159.958 156.155 159.405 155.601 158.852C168.663 157.201 178.796 145.98 178.796 132.422L178.787 132.403Z" fill="#FEFEFE"/>
</svg>
