<svg width="600" height="300" viewBox="0 0 600 300" fill="none" xmlns="http://www.w3.org/2000/svg">
<path d="M115.429 108.493C115.356 111.312 114.923 114.195 114.63 117.004C114.484 118.396 114.802 120.567 116.876 119.867C118.229 119.411 119.356 117.983 120.125 116.948C121.324 115.339 122.531 113.557 123.744 111.604C124.309 110.695 124.67 110.304 125.755 110.491C128.968 111.046 132.557 111.443 136.521 111.679C137.594 111.744 138.877 111.444 139.388 110.435C140.229 108.774 138.104 106.479 136.935 105.524C135.04 103.978 133.173 102.4 131.333 100.79C131.324 100.782 131.275 100.744 131.185 100.674C130.506 100.15 131.767 98.1363 132.216 97.4843C133.083 96.2264 133.867 94.8612 134.569 93.3921C135.65 91.1282 134.329 89.2966 131.849 90.3281C130.56 90.8626 128.946 91.5656 127.004 92.4355C125.806 92.9734 124.697 92.8781 123.697 92.0372C122.318 90.8762 118.171 87.1756 116.396 88.1697C114.969 88.9697 115.143 92.5359 115.259 93.9522C115.286 94.2892 115.003 94.5922 114.991 94.9888C114.927 97.0656 113.96 97.8826 112.217 99.1508C111.025 100.017 105.876 103.611 107.028 105.444C107.864 106.773 112.94 107.293 114.447 107.497C115.076 107.582 115.446 107.831 115.429 108.493Z" fill="white"/>
<path d="M493.388 130.62C493.388 130.452 493.261 130.191 493.252 129.994C492.839 120.349 484.298 115.37 475.614 119.77C475.503 119.826 475.346 120.005 475.14 120.304C475.11 120.35 475.094 120.4 475.094 120.454C475.094 146.025 475.1 171.596 475.115 197.167C475.115 198.699 475.367 200.005 475.866 201.084C479.83 209.65 493.094 207.205 493.409 197.617C493.434 196.834 493.487 196.034 493.485 195.269C493.467 165.216 493.434 143.668 493.388 130.62Z" fill="white"/>
<path d="M284.66 155.209C279.836 153.861 276.231 153.134 270.104 151.775C266.242 150.919 261.923 149.345 261.082 144.921C259.896 138.661 265.41 134.819 270.841 133.973C276.786 133.049 282.469 133.847 287.891 136.372C289.169 136.966 290.727 137.931 291.973 138.362C297.553 140.29 304.03 135.904 303.126 129.726C302.658 126.523 300.855 124.632 298.092 123.06C294.559 121.05 290.524 119.876 286.531 119.215C276.951 117.632 266.957 117.79 257.86 121.528C249.548 124.943 243.631 131.469 242.308 140.576C240.982 149.707 243.844 158.302 251.676 163.506C259.065 168.413 268.142 170.01 276.654 171.79C279.041 172.289 281.096 172.955 282.817 173.784C285.218 174.939 287.19 176.197 287.962 178.884C289.161 183.044 287.234 187.208 283.513 189.226C281.649 190.237 279.661 190.872 277.55 191.133C270.908 191.952 264.608 190.969 258.65 188.185C257.201 187.507 255.46 186.504 253.872 185.658C251.546 184.419 249.477 184.069 246.998 185.134C241.214 187.623 239.959 195.085 245.008 199.045C248.731 201.964 253.026 203.971 257.889 205.066C274.059 208.703 301.82 207.931 307.152 187.299C308.98 180.227 308.323 172.614 303.957 166.609C299.468 160.435 291.76 157.194 284.66 155.209Z" fill="white"/>
<path d="M326.785 119.087C323.636 118.606 320.085 119.009 317.449 120.827C313.947 123.243 313.05 127.655 314.296 131.626C315.193 134.481 317.546 136.564 320.416 137.339C325.184 138.626 332.314 137.63 334.132 132.138C336.127 126.116 333.448 120.105 326.785 119.087Z" fill="white"/>
<path d="M223.206 120.706C221.179 120.051 219.149 119.756 217.122 119.823C206.364 120.175 195.654 121.093 184.991 122.572C178.904 123.418 172.859 124.54 166.855 125.939C166.86 125.92 166.864 125.905 166.867 125.893C166.872 125.878 166.881 125.866 166.896 125.861C169.825 124.678 172.745 123.467 175.651 122.23C178.252 121.122 185.055 118.316 185.53 115.136C185.586 114.757 185.518 114.251 185.326 113.621C183.304 107.012 178.858 101.112 174.324 95.5795C172.837 93.7632 170.069 89.9927 167.315 90.5664C164.315 91.1911 161.306 98.2043 160.085 100.902C157.105 107.492 154.036 114.042 150.876 120.55C150.251 121.835 149.402 122.722 148.226 123.394C146.663 124.288 144.929 125.006 143.022 125.549C134.239 128.048 125.465 130.416 117.123 134.207C113.805 135.715 109.137 138.581 111.97 142.929C113.376 145.089 116.273 146.859 118.648 148.08C122.832 150.226 126.941 152.512 131.084 154.732C133.678 156.123 135.995 157.721 138.033 159.531C138.474 159.921 139.873 161.512 139.898 162.191C139.919 162.688 139.704 163.262 139.599 163.752C139.505 164.186 139.389 164.617 139.25 165.048C136.375 173.908 133.152 184.377 129.583 196.454C128.674 199.523 127.819 202.293 127.504 205.166C127.343 206.657 127.346 208.439 127.731 209.626C129.161 214.036 134.053 212.297 136.722 210.482C140.435 207.958 144.003 205.243 147.426 202.337C157.508 193.78 167 184.554 176.018 174.883C178.929 171.761 182.621 167.322 181.007 162.785C180.778 162.137 180.231 161.199 179.368 159.97C177.13 156.783 174.752 153.713 172.231 150.756C172.219 150.742 172.21 150.723 172.207 150.706C172.198 150.65 172.238 150.596 172.295 150.586L172.493 150.557C176.776 152.999 181.886 155.75 185.757 159.291C188.247 161.568 187.616 164.605 186.104 167.181C184.099 170.6 182.044 173.995 179.94 177.36C177.807 180.773 181.906 183.514 184.383 184.852C193.064 189.54 202.314 192.925 211.815 195.395C214.601 196.119 218.113 197.108 220.726 196.052C224.386 194.573 222.969 189.24 221.805 186.532C217.553 176.637 212.23 167.205 206.243 158.259C205.033 156.45 203.812 154.647 202.585 152.851C202.027 152.038 200.871 150.138 201.327 149.171C201.931 147.889 203.109 146.873 204.422 145.918C208.694 142.805 212.957 139.676 217.207 136.532C220.567 134.048 233.789 124.129 223.206 120.706Z" fill="white"/>
<path d="M454.497 144.063C450.403 141.634 446.017 140.563 441.222 140.023C433.967 139.208 426.896 139.719 420.008 141.559C414.658 142.989 406.687 147.125 406.084 153.483C405.446 160.227 412.97 164.765 418.583 161.119C419.557 160.488 420.517 159.41 421.408 158.513C423.66 156.24 426.347 154.836 429.48 154.184C436.677 152.688 445.513 154.799 446.561 163.405C446.667 164.272 446.732 165.051 446.931 165.909C446.987 166.153 446.887 166.277 446.626 166.28C444.034 166.309 441 166.389 437.528 166.522C436.607 166.558 435.621 166.73 434.654 166.799C430.469 167.096 426.383 167.729 422.299 168.694C416.697 170.018 410.867 172.097 407.117 176.79C404.312 180.3 403.04 184.429 403.303 189.177C404.128 204.192 419.378 208.654 431.737 206.039C437.941 204.727 443.177 201.472 447.115 196.439C447.132 196.418 447.154 196.405 447.179 196.4C447.239 196.388 447.297 196.425 447.309 196.483C448.316 201.127 450.689 205.115 455.689 205.949C458.281 206.382 460.86 206.213 463.427 205.445C463.916 205.301 465.308 204.703 465.308 204.157V165.729C465.308 156.8 462.506 148.815 454.497 144.063ZM442.337 190.506C438.447 194.085 432.613 195.222 427.52 194.033C424.637 193.361 422.095 191.359 421.503 188.338C419.923 180.267 429.328 178.031 435.095 177.358C438.985 176.904 442.863 176.669 446.732 176.652C446.824 176.652 446.899 176.723 446.904 176.815C447.14 181.96 446.236 186.916 442.337 190.506Z" fill="white"/>
<path d="M381.471 168.245C376.955 166.963 371.713 165.88 366.822 164.769C364.924 164.338 362.325 163.666 360.987 162.27C359.334 160.545 359.267 157.938 360.759 156.08C362.013 154.519 364.175 153.702 366.099 153.367C372.131 152.313 377.817 153.595 383.203 156.429C384.294 157.003 385.376 157.699 386.536 157.829C390.699 158.292 394.276 155.595 394.393 151.277C394.543 145.802 387.422 142.631 383.056 141.494C378.014 140.182 372.542 139.502 367.324 139.856C366.381 139.919 365.392 139.77 364.8 139.957C364.51 140.049 364.328 140.098 364.252 140.105C351.738 141.286 340.745 149.511 342.511 163.376C343.377 170.187 348.154 174.494 354.271 177.057C356.152 177.845 357.773 178.395 359.131 178.707C365.373 180.138 370.31 181.285 373.941 182.152C376.162 182.681 378.186 184.295 378.782 186.498C379.616 189.587 377.01 191.913 374.324 192.667C373.277 192.961 371.845 193.254 370.547 193.37C369.129 193.496 367.687 193.71 366.27 193.579C361.957 193.182 357.819 192.306 353.899 190.411C350.739 188.884 348.324 187.34 344.923 189.62C343.498 190.575 342.572 191.817 342.145 193.346C341.154 196.895 343.202 199.739 346.033 201.597C349.709 204.009 353.716 205.135 358.183 205.867C370.626 207.905 391.53 207.273 396.257 192.084C397.006 189.679 397.297 187.133 397.13 184.447C396.57 175.472 389.358 170.483 381.471 168.245Z" fill="white"/>
<path d="M330.939 149.923C326.125 144.997 317.091 146.856 315.362 153.992C315.21 154.622 315.133 155.51 315.132 156.657C315.125 170.008 315.125 183.359 315.132 196.709C315.132 197.964 315.212 198.914 315.37 199.559C317.585 208.6 330.998 208.596 333.184 199.516C333.346 198.844 333.427 197.818 333.427 196.434C333.427 183.114 333.427 169.794 333.426 156.474C333.426 153.932 332.75 151.775 330.939 149.923Z" fill="white"/>
</svg>
