<svg width="600" height="300" viewBox="0 0 600 300" fill="none" xmlns="http://www.w3.org/2000/svg">
<path d="M226.174 140.043H241.406V193.204H264.425V140.043H279.656V117.344H226.174V140.043Z" fill="white"/>
<path d="M315.639 117.665H292.62V193.18H315.639V117.665Z" fill="white"/>
<path d="M369.589 148.965V163.727H384.352C381.271 169.741 375.036 173.857 367.814 173.857C357.562 173.857 349.256 165.551 349.256 155.299C349.256 145.046 357.562 136.74 367.814 136.74C371.585 136.74 375.11 137.874 378.043 139.796L390.439 123.85C384.081 119.266 376.268 116.58 367.839 116.58C346.447 116.58 329.121 133.931 329.121 155.323C329.121 176.716 346.471 194.066 367.839 194.066C389.207 194.066 406.582 176.716 406.582 155.323C406.582 153.352 406.435 150.936 406.163 149.038L369.638 148.989L369.589 148.965Z" fill="white"/>
<path d="M173.014 141.669C147.727 173.167 138.657 170.678 138.657 170.678V193.376C146.914 193.376 164.757 191.602 181.936 166.636C201.258 138.564 215.972 140.708 215.972 140.708V117.369C214.197 117.369 195.392 113.795 173.014 141.669Z" fill="white"/>
<path d="M484.192 148.62C470.563 129.396 462.8 116.852 450.329 116.852H420.828V192.046H443.674V177.776H479.017C479.017 177.776 487.593 191.553 508.025 191.553V167.4C508.025 167.4 496.022 165.305 484.192 148.595V148.62ZM443.674 158.01V139.057C443.674 139.057 450.008 138.565 451.61 141.645C452.818 143.962 464.254 158.01 464.254 158.01H443.674Z" fill="white"/>
<path d="M115.54 42.1494H92.6929V193.105H115.54V42.1494Z" fill="white"/>
</svg>
