<svg width="600" height="300" viewBox="0 0 600 300" fill="none" xmlns="http://www.w3.org/2000/svg">
<path d="M100.276 140.573H125.443L98.3916 194.582V209.003H140.198V196.91H111.964L140.198 140.643V128.48H100.276V140.573Z" fill="white"/>
<path d="M189.075 130.933C184.605 128.325 178.937 127.024 172.061 127.024C166.431 127.024 161.456 128.107 157.134 130.271C152.805 132.436 149.682 135.551 147.79 139.615C145.882 143.68 144.932 149.232 144.932 156.271V179.756C144.932 185.744 145.361 190.307 146.209 193.437C147.058 196.575 148.584 199.441 150.788 202.057C152.992 204.665 156.075 206.713 160.046 208.216C164.01 209.711 168.58 210.459 173.759 210.459C178.937 210.459 183.539 209.696 187.074 208.185C190.617 206.667 193.537 204.393 195.842 201.356C198.147 198.319 199.618 195.469 200.241 192.799C200.872 190.128 201.183 186.304 201.183 181.329V175.388H186.124V186.009C184.777 196.754 180.735 196.38 171.742 196.832C162.756 197.284 161.853 187.581 161.853 187.581V170.17H201.183V159.487C201.183 151.677 200.28 145.619 198.481 141.313C196.683 137.007 193.545 133.55 189.075 130.933ZM161.853 160.912L161.767 153.468C161.767 153.468 160.646 140.192 172.645 140.192C178.851 140.192 183.796 144.934 183.796 151.225C183.796 157.517 183.881 160.912 183.881 160.912H161.853Z" fill="white"/>
<path d="M223.882 139.039V128.481H209.196V209.003L225.229 208.964V156.38C224.333 150.984 231.668 145.004 233.771 143.789C235.873 142.575 241.417 141.991 245.007 142.442L245.062 127.92C241.456 127.468 228.826 129.407 223.882 139.039Z" fill="white"/>
<path d="M299.506 135.886C297.365 133.254 294.32 131.12 290.372 129.485C286.432 127.842 281.706 127.024 276.208 127.024C269.652 127.024 264.271 128.301 260.066 130.848C255.854 133.394 252.941 136.773 251.322 140.978C249.71 145.191 248.9 151.031 248.9 158.514V179.149C248.9 185.985 249.344 191.109 250.232 194.527C251.127 197.946 252.607 200.858 254.693 203.272C256.773 205.678 259.7 207.476 263.461 208.668C267.222 209.859 271.816 210.459 277.236 210.459C282.095 210.459 286.385 209.758 290.131 208.364C293.876 206.97 296.936 204.806 299.327 201.87C301.709 198.942 303.267 195.781 303.999 192.409C304.723 189.03 305.089 183.719 305.089 176.478V156.754C305.089 151.054 304.692 146.803 303.905 144.015C303.119 141.22 301.647 138.51 299.506 135.886ZM288.161 160.912V176.563L288.075 184.708C288.527 197.525 277.376 197.284 277.376 197.284C273.327 197.284 266.724 195.501 266.046 185.16L266.132 155.025C266.132 150.501 266.272 148.796 267.619 145.378C267.619 145.378 269.878 140.441 276.924 140.192C282.905 139.989 287.849 143.579 288.161 149.185C288.503 155.469 288.161 160.912 288.161 160.912Z" fill="white"/>
<path d="M336.703 139.039L336.843 128.301L313.156 128.481V209.003H337.676V177.202C337.676 169.4 337.256 166.651 337.746 164.478C338.229 162.321 340.184 158.397 342.286 157.182C344.388 155.968 347.635 154.371 359.37 155.36V127.024C345.424 127.468 340.261 131.471 336.703 139.039Z" fill="white"/>
<path d="M414.983 130.303C411.969 128.115 408.317 127.024 404.027 127.024C401.239 127.024 398.615 127.507 396.17 128.481C393.725 129.446 391.443 130.91 389.341 132.849V89.189H364.828V209.003H389.341V151.537C389.341 147.457 389.606 144.724 390.135 143.345C390.657 141.967 391.669 141.282 393.164 141.282C394.784 141.282 395.827 141.952 396.294 143.283C396.754 144.622 396.987 147.636 396.987 152.323V209.003H421.508V153.484C421.508 145.915 421.173 140.706 420.503 137.856C419.834 134.998 417.996 132.483 414.983 130.303Z" fill="white"/>
<path d="M472.908 163.684V134.78H458.736V163.684H432.596V176.057H459.632V204.829H473.352V175.162H500.995V163.684H472.908Z" fill="white"/>
</svg>
