<svg width="100" height="100" viewBox="0 0 100 100" fill="none" xmlns="http://www.w3.org/2000/svg">
<path d="M50 17C68.777 17 84 32.2226 84 50.999C84 57.0904 82.5651 62.8985 79.5967 67.7461C76.5011 72.8063 71.9871 76.9646 66.5859 79.5029C61.5601 81.8632 55.9488 83.2051 50.0283 83.2051C44.0835 83.205 38.4466 81.8617 33.4062 79.4834C28.0077 76.9341 23.4998 72.8065 20.4023 67.7461C17.4357 62.8985 16 57.0904 16 50.999C16 32.2227 31.2223 17.0002 50 17ZM50 23.8848C35.0254 23.885 22.7139 36.0257 22.7139 50.999C22.7139 57.0339 24.8853 62.5904 28.2109 67.1016C31.0584 70.9637 35.6878 73.5078 40.8555 73.5078C43.9993 73.5077 46.6191 70.9747 46.6191 67.8291V62.8398H28.5576C36.2964 54.4446 47.5153 36.1916 50 24.9717C52.4839 36.1916 63.7046 54.4446 71.4434 62.8398H53.3809V67.8291C53.3809 70.9747 56.0009 73.5077 59.1465 73.5078C64.3133 73.5078 68.9425 70.9637 71.79 67.1016C75.1157 62.5904 77.2724 57.0339 77.2725 50.999C77.2725 36.0255 64.9748 23.8848 50 23.8848Z" fill="white"/>
</svg>
