<svg width="100" height="100" viewBox="0 0 100 100" fill="none" xmlns="http://www.w3.org/2000/svg">
<path d="M50.1722 52.9788C50.6868 52.5396 51.5216 52.5396 52.0363 52.9788L55.4971 55.9311C54.4081 57.5078 54.198 59.4165 54.9251 61.1377C55.6522 62.8588 57.2404 64.2141 59.2571 64.8353C61.2748 65.4556 63.5116 65.276 65.3579 64.3465L68.8166 67.2988C69.0636 67.5096 69.2022 67.7961 69.2023 68.0944C69.2023 68.3928 69.0636 68.6792 68.8166 68.89L63.8259 73.1498C65.3779 73.7376 66.4897 74.94 66.8001 76.3651C67.1104 77.7893 66.5793 79.2528 65.3788 80.2775C64.179 81.302 62.4635 81.7555 60.7947 81.4906C59.1257 81.2257 57.7167 80.2761 57.0281 78.9514L52.0374 83.2112C51.7903 83.422 51.4544 83.541 51.1048 83.541C50.7551 83.541 50.4193 83.422 50.1722 83.2112L46.7136 80.2588C47.8026 78.6822 48.0125 76.7735 47.2856 75.0522C46.5585 73.3309 44.9693 71.9752 42.9525 71.3547C40.9357 70.7343 38.6991 70.9129 36.8527 71.8424L33.393 68.89C33.1459 68.6792 33.0072 68.3928 33.0072 68.0944C33.0073 67.7961 33.146 67.5096 33.393 67.2988L38.3837 63.0402C36.8325 62.4524 35.7188 61.25 35.4083 59.8248C35.0979 58.4006 35.6301 56.9372 36.8308 55.9125C38.0315 54.8878 39.7462 54.4344 41.416 54.6994C43.0846 54.9643 44.4929 55.9131 45.1815 57.2374L50.1722 52.9788Z" fill="white"/>
<path d="M29.9519 34.5952C30.3016 34.5952 30.6374 34.7142 30.8845 34.9251L35.8752 39.1848C36.5639 37.8602 37.973 36.9095 39.6418 36.6445C41.3106 36.3796 43.0261 36.8341 44.2259 37.8588C45.4263 38.8835 45.9587 40.3468 45.6483 41.7711C45.3371 43.1955 44.2251 44.3987 42.673 44.9865L47.6637 49.2462C48.1782 49.6855 48.1783 50.3982 47.6637 50.8374L44.2051 53.7898C42.8289 53.1001 41.2238 52.8186 39.6407 52.9898C38.0575 53.1618 36.5845 53.7769 35.4544 54.7377C34.328 55.7029 33.608 56.9589 33.4072 58.3092C33.2057 59.6604 33.5359 61.0312 34.3431 62.2051L30.8845 65.1585C30.6374 65.3694 30.3015 65.4873 29.9519 65.4873C29.6025 65.4873 29.2674 65.3691 29.0204 65.1585L24.0297 60.8988C23.341 62.2227 21.9319 63.173 20.262 63.438C18.5933 63.7028 16.8785 63.2484 15.6779 62.2237C14.4777 61.1991 13.9464 59.7363 14.2565 58.3114C14.5668 56.8872 15.679 55.685 17.2308 55.0972L12.2401 50.8374C11.9932 50.6266 11.8544 50.3401 11.8544 50.0418C11.8544 49.7435 11.9933 49.4571 12.2401 49.2462L15.6998 46.2928C17.5472 47.2223 19.7839 47.4009 21.8007 46.7804C23.8172 46.1598 25.4049 44.8048 26.1327 43.0829C26.8596 41.3616 26.6498 39.4533 25.5607 37.8774L29.0204 34.9251C29.2674 34.7143 29.6024 34.5953 29.9519 34.5952Z" fill="white"/>
<path d="M64.5744 55.815C65.464 55.8706 66.2999 56.1961 66.9305 56.7344C67.5602 57.2719 67.9425 57.9859 68.0078 58.7443C68.006 60.2613 66.5744 61.4947 64.7979 61.5103C63.9048 61.4444 63.0687 61.1117 62.4352 60.5711C61.8018 60.0306 61.4111 59.3162 61.3338 58.5547C61.3155 57.8275 61.66 57.1273 62.2807 56.6281C62.8738 56.0906 63.7095 55.7946 64.5744 55.815Z" fill="white"/>
<path d="M78.1799 39.2966C80.6751 39.509 82.9882 40.5104 84.6599 42.1065C86.5161 43.5035 87.7022 45.437 87.9936 47.5344C88.0872 49.48 87.1527 51.3584 85.4478 52.6522C84.6298 53.3566 83.626 53.8857 82.5207 54.1952C81.0813 54.5439 79.5847 54.6914 78.09 54.6303L75.759 54.581C74.3829 54.5325 73.0321 54.9089 71.9552 55.6407L70.9974 56.3563L67.2242 53.1377C68.3012 52.1473 69.5875 51.3388 71.016 50.7574C72.3691 50.3211 73.8205 50.1534 75.2615 50.2654C76.4991 50.3688 77.7482 50.3233 78.9711 50.1306C79.733 49.9723 80.4299 49.6387 80.9854 49.1662C82.6479 47.7472 82.7128 46.3842 81.1815 45.0763L81.1804 45.0752C80.5598 44.4947 79.6834 44.1619 78.7618 44.158C77.7969 44.1979 76.8857 44.5561 76.2237 45.1563L71.9497 41.5081C73.5463 40.0264 75.8229 39.2182 78.1799 39.2966Z" fill="white"/>
<path d="M50.1733 16.673C50.688 16.2309 51.5227 16.2309 52.0374 16.673L55.4971 19.644C54.408 21.2309 54.1981 23.1521 54.9251 24.8845C55.6522 26.617 57.2414 27.9817 59.2582 28.6062C61.2748 29.2305 63.5106 29.0505 65.3568 28.1152L68.8177 31.0862C69.0648 31.2984 69.2023 31.5869 69.2023 31.8873C69.2023 32.1876 69.0648 32.4761 68.8177 32.6884L63.827 36.9755C65.3778 37.5671 66.4907 38.7765 66.8012 40.2106C67.1116 41.6441 66.5805 43.1178 65.3799 44.1492C64.1792 45.1805 62.4636 45.6367 60.7947 45.37C59.1257 45.1034 57.7167 44.1477 57.0281 42.8144L52.0374 47.1015C51.5227 47.5436 50.6879 47.5436 50.1733 47.1015L46.7136 44.1306C47.8027 42.5437 48.0126 40.6225 47.2856 38.89C46.5585 37.1576 44.9703 35.794 42.9535 35.1695C40.9358 34.545 38.7001 34.7238 36.8527 35.6593L33.3941 32.6884C33.147 32.4762 33.0073 32.1876 33.0072 31.8873C33.0072 31.5869 33.147 31.2984 33.3941 31.0862L38.3848 26.7991C36.8329 26.2075 35.7189 24.9983 35.4083 23.564C35.0979 22.1304 35.631 20.6567 36.8308 19.6254C38.0315 18.5942 39.7472 18.1379 41.416 18.4045C43.0848 18.6712 44.494 19.627 45.1826 20.9602L50.1733 16.673Z" fill="white"/>
</svg>
