<svg width="100" height="100" viewBox="0 0 100 100" fill="none" xmlns="http://www.w3.org/2000/svg">
<path d="M49.9858 15.9998C50.6547 16.4346 51.6256 17.5557 52.2612 18.1912L63.5492 29.3289L65.7905 31.5701L67.9477 33.8777C73.3997 40.0655 79.8049 49.4646 79.8051 57.8767C79.8051 68.7139 69.3527 74.6849 60.8569 71.407C58.0639 70.3367 55.7055 68.4968 54.1 65.9715C52.8465 64.0162 51.5265 65.5514 51.5248 65.7537C51.5248 67.5766 52.4276 70.5539 52.8959 71.9588C54.4178 76.5411 57.0604 80.2541 61.141 82.7293C61.5591 82.9801 61.9103 83.1642 62.3451 83.3816L63.5824 83.9998H36.3725C36.9913 83.1468 43.2795 82.1937 46.9086 72.1091C47.3601 70.8716 48.2806 67.6943 48.2807 66.072C48.2807 65.3362 47.7615 64.9851 47.0424 64.9851C46.0893 64.9858 45.1024 67.5103 42.1928 69.7175C39.4668 71.7746 36.707 72.2429 33.2953 72.2429C26.4387 72.2428 20.0007 65.7207 20.0004 58.1785C20.0004 51.0206 23.9974 44.3977 27.8774 38.8621C28.4794 38.026 29.1811 37.1894 29.85 36.3533L38.5805 27.0047C38.9819 26.6033 39.3333 26.2014 39.7514 25.867C41.1064 24.7794 45.8892 19.863 47.6283 18.1238C48.0463 17.6891 48.3636 17.3876 48.7817 16.9529C49.1662 16.5683 49.4007 16.1504 49.9858 15.9998ZM46.1235 42.0222L33.9477 42.0398C34.2332 42.4753 38.1947 45.2158 38.7309 45.6345L43.7143 49.1472L39.9848 60.8875C40.637 60.6199 41.7752 59.7003 42.394 59.2488C43.3641 58.5463 49.2313 54.1493 49.9858 53.8132C50.4372 54.0808 50.772 54.3815 51.1733 54.6658C51.6415 55.0003 51.9599 55.2012 52.4281 55.5691L59.8363 60.9373L56.0737 49.197C56.9933 48.6787 65.7202 42.3936 65.8578 42.0398H54.0004C53.5489 41.9227 53.6156 41.6212 53.3481 40.7683C53.1809 40.2667 53.0133 39.7819 52.8461 39.2468C52.1437 37.056 50.5715 31.9211 49.936 30.3992L46.1235 42.0222Z" fill="white"/>
</svg>
