<svg width="100" height="100" viewBox="0 0 100 100" fill="none" xmlns="http://www.w3.org/2000/svg">
<path d="M20.7139 33C22.6673 33 24.5426 33.3363 26.2852 33.9521C19.7939 36.2469 15.1428 42.4369 15.1426 49.7139C15.1426 56.991 19.7939 63.1808 26.2852 65.4756C24.5425 66.0915 22.6674 66.4287 20.7139 66.4287C11.483 66.4285 4 58.9448 4 49.7139C4.00023 40.4832 11.4832 33.0002 20.7139 33Z" fill="white"/>
<path d="M39.2853 33C41.2388 33 43.114 33.3363 44.8566 33.9521C38.3654 36.2469 33.7142 42.4369 33.714 49.7139C33.714 56.991 38.3654 63.1808 44.8566 65.4756C43.1139 66.0915 41.2389 66.4287 39.2853 66.4287C30.0545 66.4285 22.5714 58.9448 22.5714 49.7139C22.5717 40.4832 30.0546 33.0002 39.2853 33Z" fill="white"/>
<path d="M57.8567 33C59.8102 33 61.6854 33.3363 63.428 33.9521C56.9368 36.2469 52.2856 42.4369 52.2854 49.7139C52.2854 56.991 56.9368 63.1808 63.428 65.4756C61.6854 66.0915 59.8103 66.4287 57.8567 66.4287C48.6259 66.4285 41.1429 58.9448 41.1429 49.7139C41.1431 40.4832 48.626 33.0002 57.8567 33Z" fill="white"/>
<circle cx="78.2857" cy="49.7143" r="16.7143" fill="white"/>
</svg>
